<?xml version="1.0" standalone="no"?>
<!DOCTYPE svg PUBLIC "-//W3C//DTD SVG 1.1//EN" "http://www.w3.org/Graphics/SVG/1.1/DTD/svg11.dtd" >
<svg xmlns="http://www.w3.org/2000/svg">
<metadata></metadata>
<defs>
<font id="forumregular" horiz-adv-x="993" >
<font-face units-per-em="2048" ascent="1638" descent="-410" />
<missing-glyph horiz-adv-x="532" />
<glyph horiz-adv-x="2048" />
<glyph horiz-adv-x="2048" />
<glyph unicode="&#xd;" horiz-adv-x="532" />
<glyph unicode=" "  horiz-adv-x="532" />
<glyph unicode="&#x09;" horiz-adv-x="532" />
<glyph unicode="&#xa0;" horiz-adv-x="532" />
<glyph unicode="!" horiz-adv-x="514" d="M119 1329v21h264v-21q-27 0 -41 -38t-16 -68l-54 -990h-24l-62 990q0 14 -5 32.5t-13 35t-20.5 27.5t-28.5 11zM164 78q0 41 27.5 69.5t68.5 28.5t68.5 -28.5t27.5 -69.5t-27.5 -68.5t-68.5 -27.5t-68.5 27.5t-27.5 68.5z" />
<glyph unicode="&#x22;" horiz-adv-x="530" d="M102 860v500h103v-500h-103zM319 860v500h103v-500h-103z" />
<glyph unicode="#" horiz-adv-x="1030" d="M55 420v119h226l36 266h-206v121h225l65 415h101l-62 -415h219l64 415h102l-63 -415h199v-121h-218l-38 -266h200v-119h-215l-57 -420h-105l60 420h-223l-62 -420h-100l59 420h-207zM381 539h227l37 266h-223z" />
<glyph unicode="$" horiz-adv-x="1003" d="M74 1020q0 84 31.5 147.5t86 106.5t123 66.5t142.5 27.5v154h69v-154q80 -6 152 -22q35 -8 67.5 -13.5t63.5 -5.5v-211h-21q-4 96 -73.5 136t-188.5 44v-534q70 -27 140.5 -57.5t127 -76.5t91.5 -109.5t35 -156.5q0 -92 -34 -158.5t-89.5 -112.5t-126 -70.5t-144.5 -32.5 v-168h-69v164q-72 4 -132.5 17t-105.5 30q-31 10 -59.5 17t-53.5 7v232h21q0 -78 40 -123t93 -69.5t106.5 -32t77.5 -7.5h13v590q-68 25 -136.5 54.5t-124 71.5t-89 102.5t-33.5 146.5zM213 1038q0 -49 19.5 -87t53 -67.5t78 -52t93.5 -43.5v508q-70 -6 -116 -35.5 t-74.5 -67.5t-41 -80t-12.5 -75zM526 61q63 12 111.5 41t80.5 68t47 85t15 91q0 53 -21.5 95t-57 75t-82 58.5t-93.5 46.5v-560z" />
<glyph unicode="%" horiz-adv-x="1572" d="M70 979q0 63 24.5 119.5t65.5 99.5t97 67.5t122 24.5t122 -24.5t98 -67.5t66.5 -99.5t24.5 -119.5q0 -66 -24.5 -122t-66.5 -98t-98.5 -66.5t-121.5 -24.5q-66 0 -122 24.5t-97 66.5t-65.5 98t-24.5 122zM207 983q0 -115 56 -187.5t134 -72.5q70 0 112 68.5t42 183.5 q0 53 -15.5 98t-42 79t-61.5 53.5t-72 19.5q-72 0 -112.5 -69t-40.5 -173zM369 -51l704 1392h105l-709 -1392h-100zM864 287q0 66 24.5 123t65.5 99t97.5 66.5t122.5 24.5q63 0 120.5 -24.5t99.5 -66.5t66.5 -99.5t24.5 -122.5q0 -63 -24.5 -119.5t-66.5 -98.5t-99.5 -67 t-120.5 -25q-66 0 -122.5 25t-97.5 67t-65.5 98.5t-24.5 119.5zM1001 293q0 -51 15.5 -96t41 -78t59.5 -52.5t73 -19.5q72 0 112.5 68.5t40.5 173.5q0 115 -54 184.5t-136 69.5q-70 0 -111 -66.5t-41 -183.5z" />
<glyph unicode="&#x26;" horiz-adv-x="1572" d="M80 317q0 141 71.5 240.5t239.5 179.5q-98 82 -151.5 162t-53.5 166q0 59 22.5 112.5t63.5 93.5t95.5 63.5t119.5 23.5q78 0 137.5 -26.5t100.5 -69.5t61.5 -99.5t20.5 -113.5q0 -76 -47 -158t-164 -150q94 -78 194.5 -161.5t198.5 -161.5q41 82 66.5 164t41 150.5 t20.5 119.5t5 74q0 27 -20.5 48t-44.5 21v21h211v-21q-20 0 -42 -19.5t-26 -47.5q-12 -106 -35 -207q-18 -86 -49 -180.5t-76 -163.5q41 -39 88.5 -78t92.5 -76l88 -71q43 -37 82 -66q35 -25 71.5 -45.5t65.5 -20.5v-20h-115q-78 0 -137 29.5t-113 70.5l-202 160 q-111 -150 -229 -214t-261 -64q-92 0 -165 27.5t-123 73.5t-76.5 107.5t-26.5 126.5zM209 358q0 -55 24.5 -108t67.5 -96t102 -71t127 -30q100 0 199.5 70t181.5 180q-113 94 -229.5 191.5t-228.5 189.5q-125 -59 -184.5 -147t-59.5 -179zM309 1091.5q0 -10.5 4 -20.5 q14 -72 80 -141.5t142 -132.5q80 33 122.5 99.5t42.5 129.5q0 49 -15 96t-45 85t-76 61.5t-107 23.5q-68 0 -108 -53t-40 -127v-20.5z" />
<glyph unicode="'" horiz-adv-x="309" d="M102 860v500h103v-500h-103z" />
<glyph unicode="(" horiz-adv-x="450" d="M18 670q0 129 21.5 243.5t62.5 219t103.5 201t142.5 190.5l19 -11q-66 -92 -107 -192t-64.5 -206.5t-31.5 -219.5t-8 -227q0 -111 8 -221.5t31.5 -218t65.5 -210t110 -194.5l-19 -10q-164 190 -249 397t-85 459z" />
<glyph unicode=")" horiz-adv-x="450" d="M16 1513l19 11q166 -188 250 -395t84 -461q0 -258 -84 -462t-246 -392l-19 10q66 92 108 193.5t65.5 208t31.5 218t8 226.5q0 111 -8 222.5t-32.5 219t-66.5 208.5t-110 193z" />
<glyph unicode="*" horiz-adv-x="661" d="M88 961l141 129l-141 133l2 4l186 -58l46 191h4l45 -191l184 58l2 -4l-141 -133l141 -129l-2 -5l-184 56l-45 -189h-4l-46 189l-186 -56z" />
<glyph unicode="+" horiz-adv-x="956" d="M72 623v98h350v350h100v-350h348v-98h-348v-349h-100v349h-350z" />
<glyph unicode="," horiz-adv-x="247" d="M-8 -217q41 37 64.5 66.5t34.5 53t14.5 44t3.5 43.5q0 16 -10.5 25.5t-22.5 17.5q-16 10 -32.5 23.5t-16.5 45.5q0 39 24.5 63.5t59.5 24.5q59 0 86.5 -40.5t27.5 -94.5q0 -31 -8 -68.5t-31.5 -75.5t-67.5 -76t-116 -71z" />
<glyph unicode="-" horiz-adv-x="610" d="M59 422v102h465v-102h-465z" />
<glyph unicode="." horiz-adv-x="411" d="M106 88q0 41 28 69.5t69 28.5t69.5 -28.5t28.5 -69.5t-28.5 -68.5t-69.5 -27.5t-69 27.5t-28 68.5z" />
<glyph unicode="/" horiz-adv-x="681" d="M10 -100l578 1562l76 -20l-578 -1567z" />
<glyph unicode="0" horiz-adv-x="1091" d="M76 635q0 158 40 278.5t105.5 201.5t148.5 123t169 42t170 -42t148.5 -123t104 -201.5t39.5 -278.5q0 -160 -39.5 -282t-104 -204.5t-148.5 -125.5t-170 -43t-169 43t-148.5 125.5t-105.5 204.5t-40 282zM197 713q0 -113 26.5 -228.5t75.5 -209t117.5 -153t150.5 -59.5 q59 0 114.5 34t97.5 99.5t67.5 162t25.5 223.5q0 147 -32.5 260.5t-85 190.5t-119 117t-135.5 40q-70 0 -126.5 -40t-95 -105.5t-60 -151.5t-21.5 -180z" />
<glyph unicode="1" horiz-adv-x="665" d="M12 1042v74l477 166v-55q-33 -14 -52 -45t-15 -72v-981q0 -43 14.5 -76t65.5 -33v-20h-289v20q49 0 62.5 30t13.5 71v981q0 20 -21 20q-8 0 -22 -6z" />
<glyph unicode="2" horiz-adv-x="878" d="M47 981v164h19q10 0 25 10t34 23q20 14 48 32.5t63.5 34t80.5 25.5t101 10q70 0 135 -19.5t116.5 -59.5t82 -101.5t30.5 -147.5q0 -72 -24.5 -131t-66.5 -110.5t-94 -97.5t-108 -91q-53 -43 -103 -88t-90 -94t-66.5 -105.5t-30.5 -119.5h426q78 0 123 27.5t47 90.5h18 v-233h-758q0 92 31 171t80 145.5t109.5 124t119.5 110.5q49 43 95.5 86t82 87t57 92t21.5 102q0 68 -23.5 121t-61.5 89.5t-87 56t-98 19.5q-104 0 -184 -62.5t-129 -160.5h-21z" />
<glyph unicode="3" horiz-adv-x="870" d="M18 39v158h21q53 -74 132 -112t163 -38q74 0 133 25.5t101 68.5t63.5 98.5t21.5 114.5q0 61 -24.5 119.5t-69.5 104t-109.5 72t-146.5 26.5h-94v67h104q63 0 111.5 20.5t81.5 55.5t49 78t16 90q0 43 -15 84t-46 73t-75 52.5t-101 20.5q-70 0 -139.5 -39t-116.5 -117h-21 v160h19q16 0 34.5 6t41.5 14q35 12 84 25.5t120 13.5q82 0 146.5 -23.5t108.5 -63.5t67.5 -93t23.5 -111q0 -80 -48 -153.5t-148 -118.5q141 -41 210.5 -131t69.5 -205q0 -86 -31.5 -158.5t-92 -127t-144.5 -85t-188 -30.5q-78 0 -129 14t-86 26q-23 8 -41.5 13.5t-36.5 5.5 h-19z" />
<glyph unicode="4" horiz-adv-x="860" d="M6 330l692 981v-879h125v-102h-125v-201q0 -41 15.5 -75t64.5 -34v-20h-289v20q29 0 44.5 9.5t22.5 25t8 35t1 39.5v201h-559zM158 432h407v574q-102 -145 -203.5 -286.5t-203.5 -287.5z" />
<glyph unicode="5" horiz-adv-x="899" d="M35 41v162q53 -72 140 -113t175 -41q80 0 139.5 24.5t99.5 66.5t59.5 100.5t19.5 126.5q0 82 -28 143t-73 103t-103 62.5t-118 20.5q-66 0 -143.5 -29.5t-159.5 -93.5l262 687h512l-41 -115h-428q-35 -92 -75 -190.5t-74 -192.5q49 23 92 31t92 8q82 0 157.5 -29t135 -82 t95.5 -131t36 -176q0 -72 -27.5 -144.5t-83 -130t-140.5 -93t-198 -35.5q-55 0 -108 12t-100 24q-35 10 -64 17.5t-51 7.5z" />
<glyph unicode="6" horiz-adv-x="1005" d="M66 508q0 135 37.5 269t111.5 241.5t180.5 175.5t243.5 68q29 0 60.5 -4.5t56.5 -8.5q12 -2 25.5 -4t15.5 -2v-147h-21q-33 41 -79 65.5t-87 24.5q-94 0 -163.5 -46t-115.5 -114t-73 -146.5t-35 -146.5q59 53 133 74.5t154 21.5q104 0 183 -35.5t131.5 -94t78 -134.5 t25.5 -155q0 -80 -27 -158t-80 -138.5t-132 -97t-183 -36.5q-115 0 -199 43t-137 115.5t-78.5 168.5t-25.5 201zM197 451q0 -72 21.5 -143.5t63.5 -128t101 -92.5t137 -36q70 0 123 27.5t89 74t53.5 105.5t17.5 121q0 70 -21.5 137.5t-61.5 121.5t-99.5 87t-135.5 33 q-74 0 -128 -25.5t-90 -68.5t-53 -98.5t-17 -114.5z" />
<glyph unicode="7" horiz-adv-x="903" d="M14 1030v230h840l-483 -1260h-97l441 1145h-535q-25 0 -50.5 -3t-47 -14.5t-34.5 -35t-13 -62.5h-21z" />
<glyph unicode="8" horiz-adv-x="1030" d="M45 330q0 117 69.5 210t221.5 138q-117 53 -171 123.5t-54 173.5q0 76 31.5 132t84 95t120 58.5t136.5 19.5q70 0 138.5 -19.5t122 -58.5t87 -97t33.5 -136q0 -92 -61.5 -172t-159.5 -121q127 -37 209 -122t82 -220q0 -90 -36 -156.5t-96.5 -110.5t-140 -65.5 t-169.5 -21.5q-84 0 -164 21.5t-143.5 65.5t-101.5 109.5t-38 153.5zM176 356q0 -61 28.5 -116.5t76 -97.5t109 -64.5t126.5 -22.5q55 0 111.5 17.5t100.5 47.5t73.5 73t29.5 98q0 57 -30.5 108.5t-86 93.5t-128 75.5t-152.5 58.5q-53 -18 -100 -45t-82 -62t-55.5 -76 t-20.5 -88zM236 1016q0 -55 26.5 -102.5t70.5 -84t100 -64.5t114 -46q92 37 145 92t53 127q0 61 -25.5 112.5t-66.5 87.5t-93 55t-105 19q-41 0 -80 -12t-70 -36.5t-50 -61.5t-19 -86z" />
<glyph unicode="9" horiz-adv-x="1005" d="M66 831q0 80 26.5 158t79.5 138.5t132 97.5t183 37q117 0 200 -43t136.5 -116t79 -169t25.5 -201q0 -135 -29 -271t-93.5 -243.5t-170 -175.5t-256.5 -68q-29 0 -72 6.5t-67 10.5q-14 2 -29.5 4t-11.5 2v147h20q33 -41 79 -65.5t87 -16.5q88 0 155.5 41t116 109t76 146.5 t37.5 146.5q-59 -53 -132 -73.5t-155 -20.5q-104 0 -183 35.5t-131 94t-77.5 134.5t-25.5 155zM193 862q0 -70 21.5 -137.5t61 -121.5t98 -87t134.5 -33q74 0 129 26t91 69t53.5 98t17.5 115q0 72 -21.5 143.5t-63.5 127.5t-102.5 92t-138.5 36q-70 0 -122 -27.5t-88 -74 t-53 -105.5t-17 -121z" />
<glyph unicode=":" horiz-adv-x="411" d="M106 88q0 41 28 69.5t69 28.5t69.5 -28.5t28.5 -69.5t-28.5 -68.5t-69.5 -27.5t-69 27.5t-28 68.5zM106 694q0 41 28 70t69 29t69.5 -29t28.5 -70t-28.5 -68.5t-69.5 -27.5t-69 27.5t-28 68.5z" />
<glyph unicode=";" horiz-adv-x="415" d="M57 -211q43 39 69 68.5t40 54.5t18 44t4 42q0 18 -11 27.5t-25 19.5h2q-18 10 -33 23.5t-15 42.5q0 39 24.5 63.5t59.5 24.5q59 0 87 -41t28 -95q0 -31 -9 -67.5t-33.5 -75.5t-68.5 -77t-116 -74zM106 696q0 41 28 70t69 29t69.5 -29t28.5 -70t-28.5 -68.5t-69.5 -27.5 t-69 27.5t-28 68.5z" />
<glyph unicode="&#x3c;" horiz-adv-x="956" d="M72 614v109l802 330v-123l-657 -262q166 -63 329 -128t328 -130v-125z" />
<glyph unicode="=" horiz-adv-x="956" d="M72 471v98h798v-98h-798zM72 778v103h798v-103h-798z" />
<glyph unicode="&#x3e;" horiz-adv-x="956" d="M72 285v125l655 258q-166 66 -328.5 131t-326.5 131v123l802 -330v-109z" />
<glyph unicode="?" horiz-adv-x="837" d="M51 1110v215h49q10 0 19 2q53 14 125.5 23.5t128.5 9.5q106 0 184 -28.5t128 -76t74.5 -108.5t24.5 -127q0 -61 -15 -102t-42 -72t-61.5 -53.5t-73.5 -42.5q-49 -29 -99.5 -62t-90.5 -90t-65.5 -145t-25.5 -185h-18l-31 230q-4 12 -4 28.5v28.5q0 53 18.5 93t49 72 t68.5 57.5t75 49.5q68 41 122 87.5t54 117.5q0 113 -71.5 185.5t-196.5 72.5q-145 0 -223 -39t-82 -141h-21zM207 61q0 41 28.5 70t71.5 29q41 0 68.5 -29t27.5 -70t-27.5 -70.5t-68.5 -29.5q-43 0 -71.5 29.5t-28.5 70.5z" />
<glyph unicode="@" horiz-adv-x="1808" d="M100 252q0 186 74 356t201 299t294 205t355 76q168 0 293 -44t207 -122t122 -184.5t40 -233.5q0 -106 -39 -213.5t-110 -194.5t-169 -142.5t-217 -55.5q-49 0 -82 20.5t-51.5 53t-26.5 73.5t-8 82v39q-31 -51 -75 -98t-92 -84t-97 -58.5t-90 -21.5q-27 0 -52.5 11.5 t-46 36t-33 64.5t-12.5 95q0 137 41 249.5t108.5 191.5t156 122t182.5 43q35 0 67.5 -7t67.5 -22q4 6 5 14.5t5 12.5q0 2 1 3t1 3q6 14 13.5 28.5t19.5 33.5l94 -13q-23 -47 -42 -113.5t-35.5 -143t-25.5 -157.5t-9 -153q0 -94 20.5 -157.5t69.5 -63.5q80 0 142.5 38 t106.5 102.5t66.5 147.5t22.5 175q0 102 -32 204.5t-98.5 184.5t-170 133t-244.5 51q-145 0 -285.5 -65.5t-250 -181t-177 -270.5t-67.5 -333q0 -158 53 -270.5t141 -186t203 -108.5t237 -35q135 0 269.5 43t244.5 121l13 -18q-43 -41 -105.5 -82t-142.5 -74t-174 -53.5 t-199 -20.5q-139 0 -262 40t-215 122t-146.5 208t-54.5 298zM645 252q0 -61 18.5 -86t41.5 -25q29 0 68.5 31t81.5 74t79.5 90t62.5 82q16 84 31.5 148.5t40.5 135.5q-29 18 -61.5 27.5t-59.5 9.5q-72 0 -128 -51t-95 -126t-59.5 -159t-20.5 -151z" />
<glyph unicode="A" horiz-adv-x="1208" d="M29 0v20h10q27 0 52.5 32t41.5 75l469 1249l459 -1237q14 -41 39.5 -80t66.5 -39h11v-20h-304v20h11q49 0 49 46q0 16 -6 34l-185 498h-358l-178 -489q-6 -16 -6 -31q0 -27 14 -42.5t31 -15.5h10v-20h-227zM406 668h315l-158 428z" />
<glyph unicode="B" horiz-adv-x="1001" d="M88 1331v21h336q190 0 297.5 -84t107.5 -224q0 -59 -20.5 -106t-52 -84t-68.5 -62.5t-70 -41.5q86 -16 143.5 -55.5t93.5 -89.5t50.5 -107.5t14.5 -112.5q0 -106 -39 -179t-103.5 -119t-147.5 -66.5t-171 -20.5h-367v20h10q14 0 26.5 12.5t22 29t13.5 36t4 35.5v1090 q0 14 -4 32.5t-13.5 36t-22.5 28.5t-30 11h-10zM305 68h119q166 0 261 74.5t95 207.5v23q-16 158 -106 243.5t-254 85.5h-115v-634zM305 768h107q86 0 140 22.5t87 58.5t45 79t12 84v14q-6 119 -82.5 188.5t-205.5 69.5h-103v-516z" />
<glyph unicode="C" horiz-adv-x="1275" d="M80 674q0 127 45 252t137 224t231.5 160.5t327.5 61.5q68 0 122 -12t97 -25q31 -10 56.5 -15t50.5 -5v-228h-21q-12 63 -44.5 105.5t-76.5 65t-94.5 31.5t-97.5 9q-152 0 -263.5 -54t-185 -141t-109.5 -195.5t-36 -215.5q0 -121 47 -236.5t130 -204.5t193.5 -143.5 t239.5 -54.5q37 0 87.5 8.5t99.5 32t91 66.5t64 112h21v-227q-31 0 -64.5 -8t-74.5 -19q-53 -14 -118 -26t-136 -12q-178 0 -313.5 61t-225.5 159.5t-135 222.5t-45 251z" />
<glyph unicode="D" horiz-adv-x="1261" d="M90 0v20h10q14 0 26.5 12.5t22 29t13.5 36t4 35.5v1092q0 14 -4 32.5t-12.5 35t-20.5 27.5t-29 11h-10v21h395q162 0 291 -56.5t218 -151.5t136.5 -218t47.5 -256q0 -125 -45.5 -245t-135.5 -214t-225 -152.5t-313 -58.5h-369zM303 72h109q111 0 222 33.5t201.5 104.5 t146.5 177.5t56 251.5q0 131 -47 248t-132 204t-200.5 138t-250.5 51h-105v-1208z" />
<glyph unicode="E" d="M92 0v20h10q16 0 28.5 11.5t22 28t14.5 35t5 34.5v1096q0 14 -5 32.5t-14.5 35t-21.5 27.5t-29 11h-10v21h789v-191h-21q-4 47 -36.5 83t-102.5 36h-412v-518h340q47 0 79 28.5t32 67.5h20v-256h-20q0 37 -31 63.5t-80 26.5h-340v-620h449q39 0 67.5 18.5t48 44t28.5 55 t9 50.5h21v-240h-840z" />
<glyph unicode="F" horiz-adv-x="942" d="M94 0v20h10q16 0 28.5 11.5t22 28t13.5 35t4 34.5v1096q0 14 -4 32.5t-12.5 35t-21.5 27.5t-30 11h-10v21h787v-191h-21q0 47 -31.5 83t-99.5 36h-420v-518h340q47 0 79 28.5t32 67.5h20v-256h-20q0 37 -31 63.5t-80 26.5h-340v-563q0 -16 4 -34.5t13.5 -35t22 -28 t28.5 -11.5h10v-20h-293z" />
<glyph unicode="G" horiz-adv-x="1345" d="M76 678q0 127 44 252t135 223t229.5 158.5t328.5 60.5q72 0 133.5 -12t108.5 -23q27 -6 46 -11t34 -5h18v-217h-20q-12 63 -48 102t-83.5 59.5t-99.5 27.5t-97 7q-154 0 -266.5 -54t-184 -140t-106.5 -193.5t-35 -214.5q0 -119 45 -234.5t127 -206.5t197.5 -147.5 t257.5 -56.5q39 0 96 9.5t115 41.5v482q0 14 -4.5 32.5t-13.5 35t-21.5 27.5t-28.5 11h-10v21h293v-21h-11q-16 0 -28.5 -11t-20.5 -27.5t-13 -35t-5 -32.5v-549q-37 -14 -84 -24.5t-98.5 -17.5t-104.5 -11t-98 -4q-184 0 -321.5 61t-227.5 160.5t-134 224.5t-44 252z" />
<glyph unicode="H" horiz-adv-x="1273" d="M117 0v20h10q14 0 26.5 11.5t21.5 29t13.5 37t4.5 35.5v1092q0 14 -4.5 32.5t-12.5 35t-20.5 27.5t-28.5 11h-10v21h286v-21h-10q-16 0 -28.5 -11t-19.5 -27.5t-11 -35t-4 -32.5v-463h655v463q0 14 -4 32.5t-12 35t-20.5 27.5t-28.5 11h-11v21h287v-21h-10 q-16 0 -28.5 -11t-20 -27.5t-11.5 -35t-4 -32.5v-1092q0 -16 5.5 -35.5t13.5 -36t19 -29t26 -12.5h10v-20h-287v20h11q14 0 26 11.5t21.5 29t13.5 37t4 35.5v557h-655v-557q0 -16 4 -35.5t12 -36t19.5 -29t27.5 -12.5h10v-20h-286z" />
<glyph unicode="I" horiz-adv-x="497" d="M100 0v20h11q16 0 28.5 11.5t21.5 29t13 37t4 35.5v1092q0 14 -4 32.5t-13 35t-21.5 27.5t-28.5 11h-11v21h293v-21h-10q-14 0 -26.5 -11t-20.5 -26.5t-13.5 -35t-5.5 -33.5v-1092q0 -16 4.5 -35.5t13.5 -36t20.5 -29t27.5 -12.5h10v-20h-293z" />
<glyph unicode="J" horiz-adv-x="552" d="M-27 -414q72 51 127 121q47 59 88 145.5t41 198.5v1172q0 14 -4 32.5t-13 36t-21.5 28.5t-26.5 11h-10v21h295v-21h-11q-16 0 -28.5 -11t-21.5 -28.5t-14 -36t-5 -32.5v-1141q0 -66 -16.5 -121t-44 -103t-61.5 -88t-71 -73q-84 -76 -192 -127z" />
<glyph unicode="K" horiz-adv-x="1159" d="M92 0v20h10q16 0 28.5 12.5t22 29t13.5 36t4 35.5v1092q0 14 -4 32.5t-13.5 35t-21.5 27.5t-27 11h-10v21h293v-21h-10q-16 0 -28.5 -11t-22 -27.5t-14.5 -35t-5 -32.5v-475l520 516q12 14 13 32q0 33 -25 33h-10v21h250v-21h-11q-29 0 -59.5 -20.5t-60.5 -50.5 l-430 -429l452 -686q2 -4 18.5 -24.5t40 -43t53 -40t60.5 -17.5v-20h-49q-61 0 -103 7t-73 23.5t-54.5 41t-47.5 61.5l-398 600l-86 -88v-512q0 -16 5 -34.5t13.5 -36t21 -30t28.5 -12.5h10v-20h-293z" />
<glyph unicode="L" horiz-adv-x="952" d="M92 0v20h10q16 0 28.5 11.5t22 28t14.5 35t5 34.5v1096q0 14 -5 32.5t-14.5 35t-21.5 27.5t-29 11h-10v21h295v-21h-10q-16 0 -28.5 -11t-21 -27.5t-13.5 -35t-5 -32.5v-1149h449q39 0 67.5 18.5t48 46t28.5 59t9 58.5h21v-258h-840z" />
<glyph unicode="M" horiz-adv-x="1591" d="M94 0v20h10q14 0 26.5 12.5t21 29t12.5 36t4 35.5v1092q0 14 -4 32.5t-12.5 35t-20.5 27.5t-27 11h-10v21h209l475 -1121l475 1121h232v-21h-10q-16 0 -28.5 -11t-22 -27.5t-13.5 -35t-4 -32.5v-1092q0 -16 4 -35.5t13.5 -36t21.5 -29t29 -12.5h10v-20h-291v20h10 q14 0 26.5 12.5t22 29t13.5 36t4 35.5v1077l-529 -1233l-501 1170v-1014q0 -16 4 -35.5t13 -36t21.5 -29t28.5 -12.5h10v-20h-223z" />
<glyph unicode="N" horiz-adv-x="1286" d="M86 1331v21h207l743 -1172v1045q0 14 -5 32.5t-14 35t-21.5 27.5t-28.5 11h-11v21h230v-21h-10q-16 0 -28.5 -11t-22 -27.5t-13.5 -35t-4 -32.5v-1225h-127l-741 1176v-1043q0 -16 4 -35.5t13 -36t21.5 -29t28.5 -12.5h10v-20h-227v20h10q14 0 27.5 12.5t22 29t13.5 36 t5 35.5v1092q0 14 -3 32.5t-11.5 35t-22.5 27.5t-35 11h-10z" />
<glyph unicode="O" horiz-adv-x="1558" d="M76 662q0 131 47 259t138 228t222 161.5t299 61.5q160 0 287 -56t216 -151.5t137 -221.5t48 -263q0 -154 -56 -283t-154.5 -221t-228.5 -144t-277 -52q-158 0 -284 57t-213 151.5t-134 217t-47 256.5zM213 690q0 -113 43 -226.5t119 -205.5t179 -149.5t226 -57.5 q137 6 240.5 62.5t173.5 143.5t103.5 191.5t33.5 206.5q0 113 -41 227.5t-116.5 208t-181 151.5t-236.5 58q-127 0 -227.5 -56t-171 -144t-107.5 -196.5t-37 -213.5z" />
<glyph unicode="P" horiz-adv-x="925" d="M90 0v20h10q14 0 26.5 12.5t21 29t12.5 36t4 35.5v1092q0 29 -16.5 65.5t-47.5 40.5h-10v21h291q227 0 345 -87t118 -247q0 -86 -41 -153.5t-107.5 -113.5t-149.5 -71t-165 -25h-78v-522q0 -16 4 -35.5t13.5 -36t20.5 -29t28 -12.5h10v-20h-289zM303 727h62 q82 0 146 22.5t107.5 59.5t66 84t22.5 96q0 59 -19.5 111.5t-63.5 92.5t-116 63.5t-176 23.5h-29v-553z" />
<glyph unicode="Q" horiz-adv-x="1579" d="M82 662q0 131 47 259t138 228t222 161.5t297 61.5q160 0 287 -60.5t216 -157.5t137.5 -220t48.5 -250q0 -92 -18.5 -170t-51.5 -143.5t-75 -119.5t-91 -99l68 -76q80 -74 174 -132.5t190 -98.5t190.5 -60.5t172.5 -20.5q68 0 144.5 12.5t155.5 37t156.5 64.5t147.5 95 l12 -18q-68 -74 -151.5 -130t-176 -93t-189.5 -56.5t-191 -19.5t-188.5 16.5t-189 55.5t-188.5 105.5t-188 166.5l-70 74q-35 -23 -79 -40.5t-93 -29.5t-100 -18t-96 -6q-143 0 -265.5 58t-211.5 153.5t-140 218t-51 252.5zM219 692q0 -113 42 -227.5t118 -206.5t179 -149.5 t226 -57.5q137 6 241.5 62.5t173.5 143.5t103.5 191.5t34.5 204.5q0 113 -42 228.5t-116.5 209t-181 151.5t-235.5 58q-127 0 -228.5 -56t-171 -144t-106.5 -195.5t-37 -212.5z" />
<glyph unicode="R" horiz-adv-x="1105" d="M92 0v20h10q14 0 26.5 12.5t22 29t13.5 36t4 35.5v1092q0 14 -4 32.5t-13.5 35t-21.5 27.5t-27 11h-10v21h357q205 0 316.5 -80t111.5 -236q0 -78 -26 -136t-69 -100t-101 -67.5t-124 -38.5l148 -225q53 -82 108 -161t109 -163q14 -20 31.5 -42.5t37 -41t41 -30 t43.5 -11.5v-20h-88q-82 0 -134 40t-87 93q-92 135 -183 274.5t-182 274.5q-23 2 -48 5t-48 7v-561q0 -16 4 -35.5t13.5 -36t21 -29t27.5 -12.5h10v-20h-289zM305 762h10q16 -2 52 -3t90 -1q43 0 91 13t90 45t69.5 83t27.5 129t-29.5 127t-82 78t-126 39t-161.5 10h-31v-520 z" />
<glyph unicode="S" horiz-adv-x="1003" d="M74 1020q0 90 34.5 156.5t93 109.5t133.5 64.5t152 21.5q53 0 100.5 -7t90.5 -17q35 -8 67.5 -13.5t63.5 -5.5v-211h-21q-4 106 -83.5 144t-221.5 38q-82 0 -134 -27.5t-82.5 -67.5t-42 -86t-11.5 -81q0 -57 25.5 -98t68.5 -71.5t99.5 -55.5t117.5 -47 q70 -27 141.5 -57.5t128 -75.5t92.5 -111t36 -160q0 -102 -41 -174.5t-105.5 -117.5t-145.5 -65.5t-161 -20.5q-82 0 -141.5 16t-108.5 31q-33 10 -59.5 17t-53.5 7v234h21q0 -78 40 -124t93 -70.5t106.5 -32t77.5 -7.5q88 0 151.5 25.5t104.5 67.5t60.5 93.5t19.5 104.5 q0 68 -28.5 114t-74.5 80.5t-105.5 59.5t-120.5 49q-70 27 -137.5 55.5t-121 70.5t-86 100.5t-32.5 144.5z" />
<glyph unicode="T" horiz-adv-x="958" d="M18 1128v224h920v-224h-20q0 25 -8.5 50.5t-25 47t-41 36t-57.5 14.5h-241v-1143q0 -16 4 -35.5t13 -36t20.5 -29t27.5 -12.5h11v-20h-291v20h10q16 0 28.5 12.5t21.5 29t13.5 36t4.5 35.5v1143h-238q-33 0 -57.5 -14.5t-41 -36t-24.5 -47t-8 -50.5h-21z" />
<glyph unicode="U" horiz-adv-x="1196" d="M92 1331v21h291v-21h-10q-16 0 -28.5 -11t-22 -27.5t-13.5 -35t-4 -32.5v-809q0 -80 16.5 -147.5t55.5 -117t102.5 -77t155.5 -27.5q102 0 163.5 33t94.5 85t43 117.5t10 129.5v813q0 14 -4 32.5t-13 35t-21.5 27.5t-26.5 11h-11v21h224v-21h-11q-16 0 -27.5 -11 t-20.5 -27.5t-13 -35t-4 -32.5v-807q0 -133 -33 -218t-90 -134.5t-134 -67.5t-163 -18q-92 0 -171 19t-136.5 68.5t-90 134.5t-32.5 214v809q0 14 -4 32.5t-13.5 35t-21.5 27.5t-27 11h-10z" />
<glyph unicode="V" horiz-adv-x="1206" d="M23 1331v21h290v-21q-18 0 -35.5 -13t-17.5 -38q0 -12 6 -31l361 -970l360 981q2 4 4 12t2 12q0 25 -19.5 36t-35.5 11v21h223v-21q-31 0 -56.5 -16.5t-39.5 -54.5l-469 -1285l-479 1278q-12 31 -36 53.5t-58 24.5z" />
<glyph unicode="W" horiz-adv-x="1650" d="M31 1331v21h291v-21q-27 0 -44.5 -21.5t-17.5 -54.5q0 -10 4 -26l266 -869l326 1004l313 -1002l271 867q0 4 3 17.5t3 21.5q0 29 -16.5 46t-32.5 17v21h223v-21q-41 0 -69.5 -34.5t-39.5 -75.5l-372 -1229l-320 1007l-319 -1009l-375 1229q-10 39 -36 75.5t-58 36.5z" />
<glyph unicode="X" horiz-adv-x="1052" d="M23 0v20q14 0 32.5 9.5t37 24t34.5 32.5t27 35l290 557l-284 532q-10 16 -23.5 38t-28 40.5t-32 30.5t-35.5 12v21h291v-21q-12 0 -27.5 -16.5t-15.5 -40.5q0 -14 8 -29l231 -430l211 410q0 6 6 12q4 10 9.5 21.5t5.5 21.5q0 33 -22.5 42t-28.5 9v21h227v-21 q-35 0 -66.5 -38t-50.5 -74l-250 -478l320 -602q10 -18 24.5 -38.5t31 -39t33.5 -30t36 -11.5v-20h-291v20q12 0 24.5 16.5t12.5 39.5q0 14 -12 37l-261 487l-256 -487q-6 -12 -11 -28.5t-5 -31.5q0 -33 31 -33v-20h-223z" />
<glyph unicode="Y" horiz-adv-x="1083" d="M6 1331v21h283v-21q-14 -2 -26.5 -12t-12.5 -31q0 -10 6 -22l307 -539l295 510q8 16 11 24.5t3 20.5q-4 33 -23.5 41t-23.5 8v21h219v-21q-31 0 -62.5 -38t-53.5 -76l-320 -553v-531q0 -16 5 -34.5t13.5 -36t20.5 -30t29 -12.5h10v-20h-293v20h10q16 0 28.5 11.5t22 29 t13.5 37t4 35.5v512l-330 565q-10 16 -24.5 37t-30.5 39.5t-34.5 31.5t-35.5 13h-10z" />
<glyph unicode="Z" horiz-adv-x="962" d="M35 0l680 1280h-475q-33 0 -57.5 -15.5t-41 -39t-24.5 -51t-8 -52.5h-21v230h825l-680 -1280h527q33 0 57.5 15t40.5 40t24.5 52.5t8.5 51.5h20v-231h-876z" />
<glyph unicode="[" horiz-adv-x="344" d="M68 -180v1700h251v-66h-139v-1569h139v-65h-251z" />
<glyph unicode="\" horiz-adv-x="681" d="M10 1442l76 20l578 -1562l-76 -25z" />
<glyph unicode="]" horiz-adv-x="356" d="M29 -115h143v1569h-143v66h256v-1700h-256v65z" />
<glyph unicode="^" horiz-adv-x="825" d="M45 985l363 361l362 -361l-82 -78l-280 285l-285 -285z" />
<glyph unicode="_" horiz-adv-x="868" d="M-4 -311h866v-66h-866v66z" />
<glyph unicode="`" horiz-adv-x="454" d="M49 1044l53 93l291 -219l-4 -13z" />
<glyph unicode="a" horiz-adv-x="935" d="M74 199q0 70 38 123t109.5 94t175 74.5t236.5 66.5q-4 80 -33 129t-67.5 77t-81.5 37t-74 9q-53 0 -93 -16.5t-70 -42t-50.5 -55t-32.5 -56.5h-18v149q16 2 30.5 10.5t34.5 16.5q31 12 84 35.5t150 23.5q113 0 182.5 -28.5t107 -75.5t50 -107.5t12.5 -123.5v-406 q0 -41 18.5 -77t48.5 -36v-20h-198v104l-10 -10q-51 -51 -118 -79.5t-161 -28.5q-72 0 -123 16t-84 46t-48 69t-15 82zM205 215q0 -66 53 -109t139 -43q68 0 119 30t94 77l23 25v292l-21 -4q-49 -12 -119.5 -32.5t-134 -53t-108.5 -78t-45 -104.5z" />
<glyph unicode="b" horiz-adv-x="1052" d="M90 1276v20l205 64v-586q47 47 111.5 73.5t123.5 26.5q111 0 192 -36.5t134 -98t80 -140.5t27 -161q0 -84 -27 -164.5t-81 -145.5t-134 -103.5t-184 -38.5q-78 0 -141.5 31.5t-100.5 76.5v-94h-201v20q14 0 26.5 12.5t22 29t13.5 36t4 35.5v1045q0 35 -10.5 65.5 t-59.5 32.5zM295 309q0 -59 22.5 -106t59.5 -80t83 -50.5t91 -17.5q74 4 127 36t89 81t53.5 111.5t17.5 128.5q0 74 -20.5 143.5t-60.5 124.5t-99.5 89t-135.5 34q-43 0 -84 -19.5t-72.5 -51.5t-51 -76t-19.5 -93v-254z" />
<glyph unicode="c" horiz-adv-x="892" d="M74 430q0 88 31.5 168t91 141.5t146.5 98t198 36.5q76 0 123 -17t79 -34q18 -10 36 -16t36 -6v-156h-20q-10 39 -37 68.5t-61.5 50t-75.5 31t-80 10.5q-84 0 -147.5 -30t-104.5 -78t-61.5 -109.5t-20.5 -126.5q0 -76 24.5 -148.5t70.5 -130t111.5 -92.5t147.5 -35 q57 0 105.5 16.5t82 43t54 58.5t24.5 60h21v-159q-16 0 -30.5 -7.5t-33.5 -17.5q-35 -20 -88 -41.5t-139 -21.5q-104 0 -193.5 33.5t-154 94t-100 141.5t-35.5 175z" />
<glyph unicode="d" horiz-adv-x="1050" d="M76 426q0 82 26.5 163t80 144.5t133 102t184.5 38.5q70 0 137.5 -25.5t105.5 -66.5v400q0 35 -10 65.5t-59 32.5v20l205 64v-1231q0 -16 4 -35.5t12 -36t20.5 -29t28.5 -12.5v-20h-201v90q-35 -39 -93 -71.5t-146 -32.5q-109 0 -190 37.5t-134 99t-78.5 140.5t-25.5 163z M207 455q0 -72 20.5 -142.5t60.5 -127t97 -93.5t133 -39q43 0 84 17.5t72 47t50 69.5t19 87v281q0 57 -24.5 103.5t-61 79t-81 50t-84.5 17.5q-68 0 -121.5 -32t-90 -82t-55 -112.5t-18.5 -123.5z" />
<glyph unicode="e" d="M76 440q0 76 25.5 154t77.5 140.5t134 101t197 38.5q102 0 179 -34.5t127 -96t74.5 -145.5t24.5 -184h-710q8 -72 34.5 -136.5t70.5 -113.5t107.5 -79t147.5 -30q45 0 95.5 13.5t93.5 38t76.5 60.5t46.5 81h18v-154q-12 0 -27.5 -8t-36.5 -20q-41 -25 -110.5 -52.5 t-183.5 -27.5q-92 0 -175 26.5t-146.5 82t-101.5 141.5t-38 204zM205 487h583q-2 59 -21 117t-54 103t-88 72.5t-123 27.5q-72 0 -124 -28.5t-89 -74t-57.5 -102.5t-26.5 -115z" />
<glyph unicode="f" horiz-adv-x="573" d="M45 791v69h102v166q0 63 4.5 122.5t25 107t62.5 76t115 28.5q41 0 71 -9.5t51.5 -20.5t35.5 -20.5t25 -9.5v-149h-19q-10 59 -53 99t-86 40q-59 0 -77.5 -62.5t-18.5 -172.5v-195h231v-69h-231v-658q0 -16 4 -35.5t13 -36t20.5 -29t27.5 -12.5v-20h-266v20 q14 0 26.5 12.5t21.5 29t13 36t4 35.5v658h-102z" />
<glyph unicode="g" horiz-adv-x="1013" d="M76 209q0 39 18.5 77t59.5 70q-35 41 -49.5 82t-14.5 88q0 74 31 137.5t84 110.5t124.5 73.5t153.5 26.5q86 0 164 -29.5t131 -76.5h148v-74h-95q14 -31 28.5 -72.5t14.5 -86.5q0 -66 -30.5 -124.5t-84.5 -102.5t-127 -69.5t-155 -25.5q-76 0 -147.5 22.5t-126.5 65.5 q-23 -14 -31 -35.5t-8 -44.5q0 -66 59.5 -101.5t151.5 -49.5l256 -41q82 -12 136 -33t87 -48.5t45 -61t12 -72.5q0 -70 -37.5 -121t-98 -85t-137.5 -50.5t-157 -16.5q-78 0 -149.5 15.5t-126.5 46t-88 77t-33 105.5q0 53 33 101t106 96q-72 37 -109.5 99t-37.5 128z M219 -197q0 -43 23.5 -76.5t63.5 -58t94.5 -37t117.5 -12.5q61 0 116.5 11.5t97.5 32t66.5 49t24.5 61.5q0 35 -33.5 59.5t-91 43t-133.5 31.5t-157 27l-105 19q-47 -37 -65.5 -78t-18.5 -72zM219 563q0 -68 27.5 -121t70.5 -88t95.5 -53t99.5 -18q51 0 93 19.5t73 53 t47 78.5t16 94q0 61 -24.5 112.5t-64.5 87.5t-91 55.5t-102 19.5q-49 0 -92 -17.5t-76 -48t-52.5 -75t-19.5 -99.5z" />
<glyph unicode="h" horiz-adv-x="1089" d="M90 1278v20l205 64v-592q14 16 36.5 35.5t54.5 37t74 29t99 11.5q96 0 164 -33t111 -85t62 -114.5t19 -122.5v-395q0 -16 4.5 -35.5t13.5 -36t20.5 -29t27.5 -12.5v-20h-264v20q14 0 26.5 12.5t21.5 29t13 36t4 35.5v381q0 74 -20.5 129t-55 92t-78.5 54.5t-89 17.5 t-89 -17.5t-78 -48t-55.5 -74.5t-21.5 -98v-436q0 -16 4 -35.5t13.5 -36t20.5 -29t27 -12.5v-20h-266v20q14 0 26.5 12.5t22 29t13.5 36t4 35.5v1047q0 35 -10.5 65.5t-59.5 32.5z" />
<glyph unicode="i" horiz-adv-x="514" d="M117 801v18l205 66v-752q0 -16 4 -35.5t12 -36t20.5 -29t28.5 -12.5v-20h-266v20q16 0 28.5 12.5t20.5 29t12 36t4 35.5v567q0 35 -10 67t-59 34zM131 1081q0 41 27.5 70t68.5 29t70 -29t29 -70t-29 -67.5t-70 -26.5t-68.5 26.5t-27.5 67.5z" />
<glyph unicode="j" horiz-adv-x="428" d="M-47 -408q61 39 110 101q41 51 77 130t36 189v686q0 35 -10 67t-60 34v18l203 66v-840q0 -63 -15 -116.5t-40 -98.5t-55.5 -81t-63.5 -64q-78 -68 -174 -109zM129 1081q0 41 28.5 70t69.5 29t69 -29t28 -70t-28 -67.5t-69 -26.5t-69.5 26.5t-28.5 67.5z" />
<glyph unicode="k" horiz-adv-x="942" d="M98 1260v20l203 63v-854l332 312q10 10 10 24t-14 15v20h184v-20q-12 0 -25.5 -6.5t-25.5 -14.5q-14 -8 -29 -20l-291 -271l303 -383q27 -37 54 -63q23 -23 48 -42.5t44 -19.5v-20h-117q-35 0 -64.5 15.5t-52.5 33.5q-27 23 -49 49l-264 340l-43 -43v-266q0 -14 4 -32.5 t13.5 -36t21.5 -29t29 -11.5v-20h-267v20q14 0 26.5 11.5t21 28t12.5 35t4 34.5v1042q0 29 -18.5 57.5t-49.5 31.5z" />
<glyph unicode="l" horiz-adv-x="473" d="M96 1280v20l207 64v-1231q0 -16 4 -35.5t13.5 -36t20.5 -29t28 -12.5v-20h-269v20q16 0 28.5 12.5t22 29t13.5 36t4 35.5v1049q0 35 -10.5 65.5t-61.5 32.5z" />
<glyph unicode="m" horiz-adv-x="1583" d="M94 799v18l203 68v-105q31 35 85 68t142 33q57 0 102.5 -16.5t79 -42t58 -58.5t41.5 -64q16 31 38.5 63t54.5 58.5t76 43t103 16.5q115 0 180.5 -41t97 -98.5t40 -120t8.5 -105.5v-383q0 -16 4 -35.5t12 -36t19.5 -29t27.5 -12.5v-20h-266v20q16 0 28.5 12.5t22 29 t13.5 36t4 35.5v442q0 47 -13.5 90.5t-40 75t-65.5 51t-88 19.5q-55 0 -95 -25.5t-66 -62.5t-38 -75t-12 -62v-453q0 -16 4 -35.5t13.5 -36t20.5 -29t27 -12.5v-20h-264v20q14 0 26.5 12.5t22 29t13.5 36t4 35.5v455q0 49 -17.5 91t-47 70.5t-67.5 45t-77 16.5 q-53 0 -93 -20.5t-65.5 -51t-39 -66.5t-13.5 -69v-471q0 -16 4 -35.5t13.5 -36t20.5 -29t27 -12.5v-20h-264v20q14 0 26.5 12.5t22 29t13.5 36t4 35.5v547q0 16 -2 36.5t-8.5 39t-20.5 31t-39 12.5z" />
<glyph unicode="n" horiz-adv-x="1089" d="M90 799v18l205 66v-113q14 16 36.5 35.5t54.5 37t74 29t99 11.5q96 0 164 -33t111 -85t62 -114.5t19 -122.5v-395q0 -16 4.5 -35.5t13.5 -36t20.5 -29t27.5 -12.5v-20h-264v20q14 0 26.5 12.5t21.5 29t13 36t4 35.5v381q0 74 -20.5 129t-55 92t-78.5 54.5t-89 17.5 t-89 -18.5t-78 -48t-55.5 -69.5t-21.5 -83v-455q0 -16 4 -35.5t13.5 -36t20.5 -29t27 -12.5v-20h-266v20q14 0 26.5 12.5t22 29t13.5 36t4 35.5v565q0 35 -10.5 67t-59.5 34z" />
<glyph unicode="o" horiz-adv-x="1071" d="M76 424q0 100 34.5 183t96 142.5t145.5 92t183 32.5q98 0 180 -31.5t141 -89t92 -136t33 -173.5q0 -88 -29.5 -171t-88 -146.5t-143.5 -102t-198 -38.5q-102 0 -184 33.5t-140.5 92t-90 138.5t-31.5 174zM209 446q0 -76 23.5 -146.5t67.5 -125.5t105.5 -88t137.5 -33 t134 33t97 85t58.5 117.5t19.5 131.5q0 68 -20.5 136.5t-63.5 124.5t-107.5 91t-150.5 35q-74 -4 -130 -36t-94 -82t-57.5 -113.5t-19.5 -129.5z" />
<glyph unicode="p" horiz-adv-x="1054" d="M94 -410q14 0 26.5 12.5t22 29t13.5 36t4 35.5v1036q0 18 -1 36t-7.5 31t-19.5 22.5t-38 11.5v20h201v-90q41 49 99 76.5t134 27.5q111 0 192 -37.5t135 -99t81 -141.5t27 -164q0 -82 -26 -162t-78 -143.5t-130 -102t-184 -38.5q-63 0 -130 33.5t-120 84.5v-401 q0 -16 4 -35.5t13.5 -36t20.5 -29t27 -12.5v-20h-266v20zM295 307q0 -55 22.5 -101t58.5 -80t81 -52.5t90 -18.5q72 2 125 33t88 80t51 109.5t16 125.5q0 74 -20.5 146t-59 128t-95 92t-128.5 36q-43 0 -85 -16.5t-73.5 -47t-51 -72.5t-19.5 -94v-268z" />
<glyph unicode="q" horiz-adv-x="1052" d="M82 432q0 82 29.5 162t84 142.5t133.5 100t177 37.5q72 0 142.5 -33.5t111.5 -78.5l121 129v-1188q0 -16 4 -35.5t12 -36t20.5 -29t28.5 -12.5v-20h-266v20q16 0 28.5 12.5t20.5 29t12 36t4 35.5v387q-37 -47 -90 -75.5t-145 -28.5q-109 0 -189.5 37.5t-134 101 t-79 143.5t-25.5 164zM215 459q0 -72 20.5 -143.5t60.5 -128t96 -93.5t130 -39q43 0 83 17.5t72 47.5t50 69.5t18 86.5v279q0 59 -22.5 105.5t-57 78t-79.5 48t-90 16.5q-68 0 -120 -30t-88 -79t-54.5 -110.5t-18.5 -124.5z" />
<glyph unicode="r" horiz-adv-x="690" d="M86 797v16l207 61v-122q18 23 38.5 44t46 38.5t56.5 28.5t72 11q29 0 74 -12t73 -26l-61 -125q-25 41 -51.5 51t-61.5 10q-23 0 -48 -10t-50 -26.5t-48.5 -36t-39.5 -35.5v-533q0 -16 4 -34.5t13 -36t20.5 -29t27.5 -11.5v-20h-266v20q14 0 26.5 11.5t22 29t13.5 36 t4 34.5v571q0 29 -18.5 57.5t-53.5 37.5z" />
<glyph unicode="s" horiz-adv-x="841" d="M74 639q0 47 17.5 90t57 75t103 51t154.5 19q80 0 123.5 -13t72.5 -27q18 -10 36.5 -15.5t41.5 -5.5v-143h-16q-37 68 -113 102.5t-156 34.5q-51 0 -88 -13.5t-60.5 -33t-34.5 -44t-11 -48.5q0 -35 19.5 -59.5t53 -43t75.5 -35t89 -30.5q57 -18 114.5 -40t102.5 -52.5 t74 -73t29 -101.5q0 -53 -26.5 -98t-73 -78.5t-108 -53t-132.5 -19.5q-88 0 -143.5 23.5t-94.5 47.5q-27 16 -49 27.5t-49 11.5v156h20q6 -29 36 -62.5t72 -62.5t92 -48.5t101 -19.5q37 0 76 8.5t71 27t53.5 46t21.5 66.5t-22.5 67.5t-57.5 50t-80 38t-90 30.5 q-53 16 -107.5 37t-97.5 48.5t-69.5 67.5t-26.5 95z" />
<glyph unicode="t" horiz-adv-x="583" d="M43 791v69h115v182q0 35 -9.5 65t-60.5 32v20l205 66v-365h229v-69h-229v-494q0 -53 2 -96t10 -72t24.5 -44t45.5 -15q43 0 81 41t48 98h18v-150q-18 0 -30 -12q-16 -14 -46 -30.5t-90 -16.5q-74 0 -114.5 28.5t-59 76t-21.5 104.5t-3 117v465h-115z" />
<glyph unicode="u" horiz-adv-x="1073" d="M100 799v18l207 66v-523q0 -156 67.5 -229.5t166.5 -73.5q53 0 95 23.5t71.5 56.5t45 68t15.5 57v436q0 18 -1 36t-8 32t-21.5 23.5t-41.5 9.5v18l207 66v-750q0 -14 4 -33.5t11.5 -37t19.5 -30t29 -12.5v-20h-199v113q-31 -45 -90.5 -88t-153.5 -43q-119 0 -188.5 40.5 t-106 104t-47 138.5t-10.5 141v292q0 18 -1 36t-8 32t-21.5 23.5t-41.5 9.5z" />
<glyph unicode="v" horiz-adv-x="954" d="M23 840v20h280v-20q-12 0 -31.5 -12.5t-19.5 -34.5q0 -10 16 -48l236 -530l254 553q8 20 8 31q0 18 -17.5 29.5t-29.5 11.5v20h201v-20q-14 0 -28.5 -10.5t-28 -27t-25 -35.5t-19.5 -36l-352 -766l-350 774q-14 33 -37 67t-57 34z" />
<glyph unicode="w" horiz-adv-x="1380" d="M25 840v20h280v-20q-14 0 -35.5 -13.5t-21.5 -44.5q0 -4 3 -17t7 -24l201 -495l258 637l260 -637l203 504q10 31 10 43q0 16 -10.5 30.5t-34.5 16.5v20h203v-20q-37 0 -56.5 -20.5t-36.5 -61.5l-309 -774l-264 647l-262 -645l-303 749q-14 35 -36 70t-56 35z" />
<glyph unicode="x" horiz-adv-x="954" d="M23 0v20q29 0 61.5 24t54.5 56l248 336l-229 312q-10 12 -23.5 28.5t-31 30.5t-35 23.5t-31.5 9.5v20h299v-20q-12 0 -25.5 -8.5t-13.5 -30.5q0 -14 12 -29l166 -229l158 209q16 20 20 32.5t4 22.5q0 12 -7 22.5t-21 10.5v20h196v-20q-33 0 -61.5 -32t-50.5 -60 l-199 -265l274 -370q27 -37 64 -65t68 -28v-20h-302v20q39 0 39 29q0 10 -24 45l-205 283l-213 -289q-6 -8 -14 -22.5t-8 -24.5q0 -20 22 -21v-20h-192z" />
<glyph unicode="y" horiz-adv-x="970" d="M33 840v20h270v-20q-8 0 -20.5 -14.5t-12.5 -37.5q0 -18 9 -32l251 -580l242 592q6 14 6 27q0 20 -13 32.5t-28 12.5v20h199v-20q-33 0 -56.5 -28t-37.5 -62l-422 -1043q-29 -86 -73 -116.5t-91 -30.5q-31 0 -54.5 8t-41 19.5t-27.5 21.5t-12 16l67 166q10 -37 21 -55 q10 -20 28.5 -36.5t45.5 -16.5q49 0 77 71l101 252l-330 746q-10 25 -33.5 56.5t-64.5 31.5z" />
<glyph unicode="z" horiz-adv-x="878" d="M27 0l561 788h-336q-35 0 -63.5 -14t-48 -36.5t-30 -48t-10.5 -48.5h-20v219h723l-561 -786h381q45 0 75.5 14t50 35.5t27.5 48.5t8 49h19v-221h-776z" />
<glyph unicode="{" horiz-adv-x="526" d="M18 662v20q76 6 119 24.5t64.5 51.5t26.5 83t5 117v248q0 92 4.5 152.5t29 96.5t75.5 50.5t143 14.5h25v-19q-57 0 -89 -15.5t-48.5 -41t-20.5 -62t-4 -82.5v-241q0 -84 -6 -147.5t-25.5 -111.5t-57.5 -80t-101 -52q70 -18 108.5 -47t57 -74t21.5 -107.5t3 -144.5v-238 q0 -49 4 -89t20.5 -67.5t48.5 -43t89 -17.5v-20h-21q-96 0 -147 15t-75.5 55t-29 105.5t-4.5 168.5v221q0 70 -5 119t-26.5 81.5t-64.5 51t-119 25.5z" />
<glyph unicode="|" horiz-adv-x="319" d="M92 -180v1702h133v-1702h-133z" />
<glyph unicode="}" horiz-adv-x="526" d="M10 -160q57 2 89 17.5t48.5 43t20.5 67.5t4 89v238q0 82 3 144.5t21.5 107.5t56.5 73.5t109 47.5q-66 18 -103.5 51t-57 80t-24.5 111.5t-5 148.5v241q0 45 -4 82t-20.5 62.5t-48 41t-89.5 15.5v19h25q94 0 145 -14.5t76 -50.5t29 -96.5t4 -152.5v-248q0 -68 5 -117.5 t26.5 -82.5t63.5 -51.5t118 -24.5v-20q-76 -6 -118 -25t-63.5 -51.5t-26.5 -81.5t-5 -119v-221q0 -102 -4 -168t-29 -106t-77 -55t-148 -15h-21v20z" />
<glyph unicode="~" horiz-adv-x="1138" d="M76 578q31 76 65.5 121.5t71.5 70.5t73 32t64 7q76 0 135.5 -26.5t116.5 -59.5q51 -29 101.5 -52.5t107.5 -23.5q31 0 62.5 6t61.5 21.5t53.5 42t39.5 67.5l21 -4q-33 -111 -99.5 -171t-165.5 -60q-74 0 -136 26.5t-120 59.5q-49 27 -97 49.5t-101 22.5q-31 0 -66 -5.5 t-66.5 -19.5t-59 -41t-42.5 -68z" />
<glyph unicode="&#xa1;" horiz-adv-x="514" d="M119 0v20q16 0 28.5 11.5t20.5 28t13 35t5 32.5l64 954h20l56 -954q0 -16 4 -34.5t12 -34t20.5 -27t26.5 -11.5v-20h-270zM164 1272q0 41 27.5 68.5t68.5 27.5t68.5 -27.5t27.5 -68.5t-27.5 -69.5t-68.5 -28.5t-68.5 28.5t-27.5 69.5z" />
<glyph unicode="&#xa2;" horiz-adv-x="892" d="M74 430q0 80 27.5 154.5t78.5 134t125 99.5t168 52v162h80v-158q66 -4 113 -18t75 -31q20 -10 38 -17t36 -7v-156h-20q-10 37 -36 65.5t-58.5 48t-71.5 32t-76 14.5v-750h25q51 0 96 16.5t77.5 43t52 58.5t23.5 60h21v-159q-14 0 -28.5 -7.5t-33.5 -17.5h-2 q-35 -20 -91 -40.5t-140 -22.5v-166h-80v172q-86 14 -159.5 52t-127 96.5t-83 132t-29.5 157.5zM207 461q0 -61 19.5 -124t55 -116t84 -94t107.5 -61v733q-66 -12 -116 -45t-83.5 -79t-50 -101.5t-16.5 -112.5z" />
<glyph unicode="&#xa3;" horiz-adv-x="952" d="M106 16q68 37 121 119q45 70 83 199t38 336v121h-158v69h158v166q0 160 67.5 248t168.5 88q47 0 79.5 -14.5t55.5 -28.5q29 -18 41 -19v-149h-21q-23 70 -62.5 103.5t-74.5 33.5q-47 0 -84 -58.5t-37 -174.5v-195h232v-69h-232v-105q0 -186 -43 -321.5t-98 -206.5 q23 8 48.5 15t47.5 7q35 0 69 -15t68 -34q29 -18 60 -31.5t65 -13.5q55 0 123 78l17 -14q-39 -78 -92.5 -117t-118.5 -39q-37 0 -73 13t-65 28q-6 0 -12 6q-27 12 -61.5 25.5t-73.5 13.5q-35 0 -83 -17.5t-107 -46.5l-35 -20z" />
<glyph unicode="&#xa4;" horiz-adv-x="1503" d="M199 205l127 125q-41 43 -79 122.5t-38 202.5q0 125 38 206t79 124l-127 123l90 90l127 -125q76 61 162 89t163 28q78 0 165 -27.5t161 -89.5l127 125l90 -90l-127 -123q41 -43 79 -124t38 -206q0 -123 -38 -202.5t-79 -122.5l127 -125l-90 -88l-127 125 q-74 -61 -161 -89t-165 -28t-163.5 27.5t-161.5 89.5l-127 -125zM309 655q0 -90 34 -167.5t93.5 -136t137 -92.5t167.5 -34t169 34t137.5 92.5t92.5 136t34 167.5t-34 169t-92.5 137.5t-137.5 92t-169 33.5t-167.5 -33.5t-137 -92t-93.5 -137.5t-34 -169z" />
<glyph unicode="&#xa5;" horiz-adv-x="1083" d="M23 1329v21h268v-21q-10 0 -28.5 -11t-18.5 -34q0 -14 6 -20l311 -541l297 512q8 16 11 24.5t3 20.5q-4 33 -23.5 41t-23.5 8v21h217v-21q-31 0 -62.5 -37t-53.5 -75l-287 -500h313v-78h-344v-172h344v-80h-344v-254q0 -16 5 -34.5t13.5 -36t20.5 -30t29 -12.5v-20h-273 v20q16 0 28.5 11.5t22 29t13.5 37t4 35.5v254h-346v80h346v172h-346v78h303l-285 491q-10 16 -23.5 37t-29.5 39.5t-33.5 31.5t-33.5 13z" />
<glyph unicode="&#xa6;" horiz-adv-x="325" d="M92 -180v766h133v-766h-133zM92 754v766h133v-766h-133z" />
<glyph unicode="&#xa7;" horiz-adv-x="772" d="M86 690q0 94 53.5 152.5t120.5 91.5q-25 20 -48.5 47t-42.5 55.5t-31.5 60t-12.5 64.5q0 57 20.5 107.5t57.5 88.5t88 59.5t115 21.5q47 0 88 -12.5t73 -28.5q45 -25 84 -25v-164h-20q-4 33 -26.5 62.5t-55.5 51t-73 35t-77 13.5q-72 0 -117.5 -46t-45.5 -105 q0 -31 17 -62t46 -59.5t65.5 -57t73.5 -55.5q47 -35 94.5 -71.5t85 -78.5t61 -90.5t23.5 -103.5q0 -96 -49 -153.5t-116 -88.5q47 -41 89 -97t42 -128q0 -55 -20.5 -105.5t-57.5 -88t-88 -60t-115 -22.5q-35 0 -67.5 9t-61.5 21q-23 14 -57.5 22.5t-67.5 8.5v166h19 q4 -31 27.5 -60.5t58 -52t75.5 -36t80 -13.5q74 0 119 47t45 107q0 37 -20.5 70.5t-52 66.5t-70.5 62.5t-76 58.5q-45 33 -90 66.5t-81 71.5t-58.5 82t-22.5 95zM215 743q0 -47 19.5 -86t54.5 -73.5t81 -68.5t99 -71q37 20 71.5 58.5t34.5 89.5t-22.5 93t-58 79t-80.5 68.5 t-92 62.5q-37 -20 -72 -59.5t-35 -92.5z" />
<glyph unicode="&#xa8;" horiz-adv-x="366" d="M0 979q0 29 18.5 47t47.5 18t47 -18t18 -47t-18.5 -47.5t-46.5 -18.5q-29 0 -47.5 18.5t-18.5 47.5zM238 979q0 29 19 47t48 18q25 0 43.5 -18t18.5 -47t-18.5 -47.5t-43.5 -18.5q-29 0 -48 18.5t-19 47.5z" />
<glyph unicode="&#xa9;" horiz-adv-x="1527" d="M84 668q0 141 52 264t143.5 214t214 143t262.5 52q139 0 262 -52t214 -143t143 -214t52 -264q0 -139 -52 -261t-143 -213.5t-214 -143.5t-262 -52t-262 52t-214.5 143.5t-143.5 213.5t-52 261zM168 668q0 -121 47 -228.5t127 -188.5t186.5 -128t227.5 -47t227.5 47 t186 128t126.5 188.5t47 228.5q0 123 -47 231.5t-126.5 190t-186 129t-227.5 47.5t-227.5 -47.5t-186.5 -129t-127 -190t-47 -231.5zM340 672q0 82 28.5 155.5t84 130t135.5 90t182 33.5q68 0 111 -13t73 -30q18 -10 35 -16t33 -6v-146h-21q-10 35 -33.5 63t-56 46 t-69.5 28.5t-72 10.5q-78 0 -133 -27.5t-91 -72t-52.5 -101.5t-16.5 -119q0 -68 20.5 -134t60.5 -118.5t98.5 -85t131.5 -32.5q53 0 97.5 15t75 39t49 52.5t22.5 57.5l21 -3v-145q-14 0 -27.5 -7t-30.5 -18q-31 -18 -78 -37.5t-133 -19.5q-96 0 -177 32t-140 87t-93 130 t-34 161z" />
<glyph unicode="&#xab;" horiz-adv-x="798" d="M100 442l287 365l16 -10l-159 -353l155 -356l-16 -10zM387 442l285 367l12 -10l-160 -355l158 -356l-16 -10z" />
<glyph unicode="&#xac;" horiz-adv-x="956" d="M76 471v98h792v-336h-90v238h-702z" />
<glyph unicode="&#xad;" horiz-adv-x="598" d="M74 406v98h463v-98h-463z" />
<glyph unicode="&#xae;" horiz-adv-x="1527" d="M84 668q0 141 52 264t143.5 214t214 143t262.5 52q139 0 262 -52t214 -143t143 -214t52 -264q0 -139 -52 -261t-143 -213.5t-214 -143.5t-262 -52t-262 52t-214.5 143.5t-143.5 213.5t-52 261zM168 668q0 -121 47 -228.5t127 -188.5t186.5 -128t227.5 -47t227.5 47 t186 128t126.5 188.5t47 228.5q0 123 -47 231.5t-126.5 190t-186 129t-227.5 47.5t-227.5 -47.5t-186.5 -129t-127 -190t-47 -231.5zM420 262v19q14 0 25.5 11t19.5 27.5t12 35t4 32.5v574q0 14 -4 31.5t-12 32.5t-19.5 25.5t-25.5 10.5v18h282q88 0 153 -16t104.5 -44 t59 -62.5t19.5 -71.5q0 -41 -20.5 -78t-56 -67.5t-86 -51t-109.5 -26.5l170 -263q25 -39 61.5 -78.5t77.5 -39.5v-19h-43q-74 0 -123 31t-96 94l-86 135q-33 51 -58.5 93t-25.5 44h-47v-272q0 -14 4 -32.5t12.5 -35t19.5 -27.5t25 -11v-19h-237zM596 721h100q72 0 118 13.5 t71.5 36t36 49t10.5 54.5q0 53 -58.5 98.5t-166.5 45.5h-111v-297z" />
<glyph unicode="&#xaf;" horiz-adv-x="544" d="M59 969v82h410v-82h-410z" />
<glyph unicode="&#xb0;" horiz-adv-x="499" d="M51 1169q0 84 56.5 141.5t140.5 57.5q41 0 76.5 -15.5t63.5 -42t43 -63.5t15 -78q0 -84 -58 -140t-140 -56q-84 0 -140.5 56t-56.5 140zM121 1169q0 -53 37 -90t90 -37q51 0 89 37t38 90t-38 92t-89 39q-53 0 -90 -39t-37 -92z" />
<glyph unicode="&#xb1;" horiz-adv-x="956" d="M72 188v99h802v-99h-802zM72 750v100h350v348h100v-348h352v-100h-352v-347h-100v347h-350z" />
<glyph unicode="&#xb4;" horiz-adv-x="454" d="M49 918l291 219l53 -93l-338 -139z" />
<glyph unicode="&#xb6;" horiz-adv-x="976" d="M39 1001q0 63 21.5 127t63.5 113t105.5 80t149.5 31h455v-23q-14 0 -25.5 -11t-21 -26.5t-14.5 -35t-5 -33.5v-1397q0 -16 4 -34.5t13.5 -36t20.5 -29t28 -11.5v-20h-521v20q14 2 26.5 13.5t21 28t12.5 35t4 34.5v827q-84 2 -146.5 32t-105.5 79t-64.5 110.5t-21.5 126.5 zM502 -174q0 -16 6 -34.5t15 -36t22.5 -29t25.5 -11.5q16 0 29.5 11.5t23 29t14.5 36t5 34.5v1397q0 14 -5 32.5t-14.5 35t-22.5 27.5t-30 11q-16 0 -28.5 -11t-21.5 -27.5t-14 -35t-5 -32.5v-1397z" />
<glyph unicode="&#xb7;" horiz-adv-x="335" d="M84 393q0 41 27.5 70t68.5 29t70 -29t29 -70t-29 -68.5t-70 -27.5t-68.5 27.5t-27.5 68.5z" />
<glyph unicode="&#xb8;" horiz-adv-x="475" d="M80 -344h22q39 0 74 9t60.5 25.5t41 36t15.5 42.5q0 33 -41 64.5t-117 41.5l80 129h68l-64 -106q90 -10 131 -44t41 -75q0 -31 -19.5 -57.5t-53 -46t-76.5 -32t-90 -12.5q-39 0 -72 9v16z" />
<glyph unicode="&#xbb;" horiz-adv-x="798" d="M104 801l17 8l287 -363l-283 -364l-16 10l155 357zM391 801l17 8l280 -363l-278 -364l-17 10l154 357z" />
<glyph unicode="&#xbf;" horiz-adv-x="837" d="M51 319q0 61 15.5 102.5t42 72t61.5 52t74 44.5q49 27 99 60.5t90 90t65.5 144.5t25.5 194h19l30 -237q4 -12 4.5 -28.5t0.5 -29.5q0 -53 -18.5 -93t-49.5 -71.5t-69 -57t-74 -50.5q-68 -41 -122.5 -87t-54.5 -118q0 -113 72 -185.5t197 -72.5q147 0 224 38t81 140h20 v-213h-49q-10 0 -18 -2q-53 -14 -126 -23t-128 -9q-106 0 -184 28.5t-128.5 75.5t-75 108t-24.5 127zM432 1260q0 41 27.5 70.5t68.5 29.5q43 0 72 -30t29 -70q0 -41 -29 -70t-72 -29q-41 0 -68.5 29t-27.5 70z" />
<glyph unicode="&#xc0;" horiz-adv-x="1208" d="M29 0v20h10q27 0 52.5 32t41.5 75l469 1249l459 -1237q14 -41 39.5 -80t66.5 -39h11v-20h-304v20h11q49 0 49 46q0 16 -6 34l-185 498h-358l-178 -489q-6 -16 -6 -31q0 -27 14 -42.5t31 -15.5h10v-20h-227zM406 668h315l-158 428zM434 1536l53 92l291 -219l-4 -12z" />
<glyph unicode="&#xc1;" horiz-adv-x="1208" d="M29 0v20h10q27 0 52.5 32t41.5 75l469 1249l459 -1237q14 -41 39.5 -80t66.5 -39h11v-20h-304v20h11q49 0 49 46q0 16 -6 34l-185 498h-358l-178 -489q-6 -16 -6 -31q0 -27 14 -42.5t31 -15.5h10v-20h-227zM406 668h315l-158 428zM434 1409l291 219l53 -92l-338 -139z " />
<glyph unicode="&#xc2;" horiz-adv-x="1208" d="M29 0v20h10q27 0 52.5 32t41.5 75l469 1249l459 -1237q14 -41 39.5 -80t66.5 -39h11v-20h-304v20h11q49 0 49 46q0 16 -6 34l-185 498h-358l-178 -489q-6 -16 -6 -31q0 -27 14 -42.5t31 -15.5h10v-20h-227zM356 1413l250 211l250 -211l-2 -10l-248 121l-246 -121z M406 668h315l-158 428z" />
<glyph unicode="&#xc3;" horiz-adv-x="1208" d="M29 0v20h10q27 0 52.5 32t41.5 75l469 1249l459 -1237q14 -41 39.5 -80t66.5 -39h11v-20h-304v20h11q49 0 49 46q0 16 -6 34l-185 498h-358l-178 -489q-6 -16 -6 -31q0 -27 14 -42.5t31 -15.5h10v-20h-227zM373 1423q29 86 66.5 122t78.5 36q25 0 53.5 -12.5t56 -27.5 t56.5 -27.5t53 -12.5q33 0 55.5 21.5t38.5 50.5l9 -2q-25 -92 -48.5 -121t-66.5 -29q-25 0 -55.5 12.5t-63.5 28t-64.5 28.5t-58.5 13q-31 0 -52 -22.5t-48 -59.5zM406 668h315l-158 428z" />
<glyph unicode="&#xc4;" horiz-adv-x="1208" d="M29 0v20h10q27 0 52.5 32t41.5 75l469 1249l459 -1237q14 -41 39.5 -80t66.5 -39h11v-20h-304v20h11q49 0 49 46q0 16 -6 34l-185 498h-358l-178 -489q-6 -16 -6 -31q0 -27 14 -42.5t31 -15.5h10v-20h-227zM406 668h315l-158 428zM424 1470q0 29 18.5 47.5t46.5 18.5 q29 0 47.5 -18.5t18.5 -47.5t-18.5 -47t-47.5 -18t-47 18.5t-18 46.5zM662 1470q0 29 19 47.5t48 18.5q25 0 43.5 -18.5t18.5 -47.5t-18.5 -47t-43.5 -18q-29 0 -48 18.5t-19 46.5z" />
<glyph unicode="&#xc5;" horiz-adv-x="1208" d="M29 0v20h10q27 0 52.5 32t41.5 75l469 1249l459 -1237q14 -41 39.5 -80t66.5 -39h11v-20h-304v20h11q49 0 49 46q0 16 -6 34l-185 498h-358l-178 -489q-6 -16 -6 -31q0 -27 14 -42.5t31 -15.5h10v-20h-227zM406 668h315l-158 428zM459 1534q0 53 42 88t105 35t106.5 -35 t43.5 -88t-43 -87t-107 -34q-63 0 -105 34t-42 87zM516 1546q0 -43 31 -72.5t74 -29.5q35 0 57 23.5t22 60.5t-32.5 67.5t-73.5 30.5q-33 0 -55.5 -23.5t-22.5 -56.5z" />
<glyph unicode="&#xc6;" horiz-adv-x="1638" d="M31 0v20h10q31 0 63.5 35t59.5 76l684 1124q0 29 -22.5 52.5t-45.5 23.5h-10v21h743v-201h-20v10q0 47 -31.5 83t-97.5 36h-377v-518h297q47 0 79 28.5t32 67.5v10h20v-276h-20v10q0 37 -31 63.5t-80 26.5h-297v-620h406q39 0 67.5 18.5t47 46t27.5 59t9 58.5v10h21v-264 h-795v20h10q16 0 28.5 11.5t22 28t14.5 35t5 34.5v565h-262l-352 -577q-8 -12 -16.5 -28.5t-8.5 -31.5q0 -37 37 -37h10v-20h-227zM631 762h219v364z" />
<glyph unicode="&#xc7;" horiz-adv-x="1269" d="M74 674q0 127 45 252t137 224t231.5 160.5t327.5 61.5q68 0 122 -12t97 -25q31 -10 56.5 -15t50.5 -5v-228h-21q-12 63 -45 105.5t-77 65t-94 31.5t-97 9q-152 0 -263.5 -54t-185 -141t-109.5 -195.5t-36 -215.5q0 -121 47 -236.5t130 -204.5t193.5 -140.5t239.5 -51.5 q37 0 86 8.5t97.5 32t91.5 63.5t67 109h21v-227q-31 0 -66 -8t-76 -19q-49 -12 -110.5 -23t-124.5 -15q-27 -39 -49 -82q92 -10 134 -44t42 -77q0 -53 -60.5 -98.5t-170.5 -45.5q-14 0 -26.5 1t-25.5 4q-6 0 -14 1t-14 1v16h22q78 0 133.5 34t55.5 77q0 35 -41 66.5 t-117 41.5l65 107q-168 8 -292.5 70.5t-208.5 159.5t-126 218t-42 244z" />
<glyph unicode="&#xc8;" d="M92 0v20h10q16 0 28.5 11.5t22 28t14.5 35t5 34.5v1096q0 14 -5 32.5t-14.5 35t-21.5 27.5t-29 11h-10v21h789v-191h-21q-4 47 -36.5 83t-102.5 36h-412v-518h340q47 0 79 28.5t32 67.5h20v-256h-20q0 37 -31 63.5t-80 26.5h-340v-620h449q39 0 67.5 18.5t48 44t28.5 55 t9 50.5h21v-240h-840zM324 1536l53 92l291 -209l-4 -12z" />
<glyph unicode="&#xc9;" d="M92 0v20h10q16 0 28.5 11.5t22 28t14.5 35t5 34.5v1096q0 14 -5 32.5t-14.5 35t-21.5 27.5t-29 11h-10v21h789v-191h-21q-4 47 -36.5 83t-102.5 36h-412v-518h340q47 0 79 28.5t32 67.5h20v-256h-20q0 37 -31 63.5t-80 26.5h-340v-620h449q39 0 67.5 18.5t48 44t28.5 55 t9 50.5h21v-240h-840zM324 1409l290 219l54 -92l-338 -139z" />
<glyph unicode="&#xca;" d="M92 0v20h10q16 0 28.5 11.5t22 28t14.5 35t5 34.5v1096q0 14 -5 32.5t-14.5 35t-21.5 27.5t-29 11h-10v21h789v-191h-21q-4 47 -36.5 83t-102.5 36h-412v-518h340q47 0 79 28.5t32 67.5h20v-256h-20q0 37 -31 63.5t-80 26.5h-340v-620h449q39 0 67.5 18.5t48 44t28.5 55 t9 50.5h21v-240h-840zM246 1413l250 211l249 -211l-2 -10l-247 121l-246 -121z" />
<glyph unicode="&#xcb;" d="M92 0v20h10q16 0 28.5 11.5t22 28t14.5 35t5 34.5v1096q0 14 -5 32.5t-14.5 35t-21.5 27.5t-29 11h-10v21h789v-191h-21q-4 47 -36.5 83t-102.5 36h-412v-518h340q47 0 79 28.5t32 67.5h20v-256h-20q0 37 -31 63.5t-80 26.5h-340v-620h449q39 0 67.5 18.5t48 44t28.5 55 t9 50.5h21v-240h-840zM311 1470q0 29 18.5 47.5t47.5 18.5t47 -18.5t18 -47.5t-18 -47t-47 -18t-47.5 18.5t-18.5 46.5zM549 1470q0 29 19.5 47.5t47.5 18.5q25 0 43.5 -18.5t18.5 -47.5t-18.5 -47t-43.5 -18q-29 0 -48 18.5t-19 46.5z" />
<glyph unicode="&#xcc;" horiz-adv-x="497" d="M76 1536l53 92l291 -219l-4 -12zM100 0v20h11q16 0 28.5 11.5t21.5 29t13 37t4 35.5v1092q0 14 -4 32.5t-13 35t-21.5 27.5t-28.5 11h-11v21h293v-21h-10q-14 0 -26.5 -11t-20.5 -26.5t-13.5 -35t-5.5 -33.5v-1092q0 -16 4.5 -35.5t13.5 -36t20.5 -29t27.5 -12.5h10v-20 h-293z" />
<glyph unicode="&#xcd;" horiz-adv-x="497" d="M76 1409l291 219l53 -92l-338 -139zM100 0v20h11q16 0 28.5 11.5t21.5 29t13 37t4 35.5v1092q0 14 -4 32.5t-13 35t-21.5 27.5t-28.5 11h-11v21h293v-21h-10q-14 0 -26.5 -11t-20.5 -26.5t-13.5 -35t-5.5 -33.5v-1092q0 -16 4.5 -35.5t13.5 -36t20.5 -29t27.5 -12.5h10 v-20h-293z" />
<glyph unicode="&#xce;" horiz-adv-x="497" d="M-2 1413l250 211l250 -211l-2 -10l-248 121l-246 -121zM100 0v20h11q16 0 28.5 11.5t21.5 29t13 37t4 35.5v1092q0 14 -4 32.5t-13 35t-21.5 27.5t-28.5 11h-11v21h293v-21h-10q-14 0 -26.5 -11t-20.5 -26.5t-13.5 -35t-5.5 -33.5v-1092q0 -16 4.5 -35.5t13.5 -36 t20.5 -29t27.5 -12.5h10v-20h-293z" />
<glyph unicode="&#xcf;" horiz-adv-x="497" d="M63 1470q0 29 18.5 47.5t47.5 18.5t47.5 -18.5t18.5 -47.5t-18.5 -47t-47.5 -18t-47.5 18.5t-18.5 46.5zM100 0v20h11q16 0 28.5 11.5t21.5 29t13 37t4 35.5v1092q0 14 -4 32.5t-13 35t-21.5 27.5t-28.5 11h-11v21h293v-21h-10q-14 0 -26.5 -11t-20.5 -26.5t-13.5 -35 t-5.5 -33.5v-1092q0 -16 4.5 -35.5t13.5 -36t20.5 -29t27.5 -12.5h10v-20h-293zM301 1470q0 29 19.5 47.5t48.5 18.5q25 0 43 -18.5t18 -47.5t-18.5 -47t-42.5 -18q-29 0 -48.5 18.5t-19.5 46.5z" />
<glyph unicode="&#xd0;" horiz-adv-x="1261" d="M63 637v82h105v506q0 14 -4 32.5t-13.5 35t-21.5 27.5t-27 11h-10v21h393q162 0 291 -56.5t218 -151.5t136.5 -218t47.5 -256q0 -125 -45.5 -245t-135.5 -214t-225 -152.5t-313 -58.5h-367v20h10q14 0 26.5 12.5t22 29t13.5 36t4 35.5v504h-105zM303 72h109 q111 0 222 33.5t201.5 104.5t146.5 177.5t56 251.5q0 131 -47 248t-132 204t-200.5 138t-250.5 51h-105v-561h359v-82h-359v-565z" />
<glyph unicode="&#xd1;" horiz-adv-x="1286" d="M86 1331v21h207l743 -1172v1045q0 14 -5 32.5t-14 35t-21.5 27.5t-28.5 11h-11v21h230v-21h-10q-16 0 -28.5 -11t-22 -27.5t-13.5 -35t-4 -32.5v-1225h-127l-741 1176v-1043q0 -16 4 -35.5t13 -36t21.5 -29t28.5 -12.5h10v-20h-227v20h10q14 0 27.5 12.5t22 29t13.5 36 t5 35.5v1092q0 14 -3 32.5t-11.5 35t-22.5 27.5t-35 11h-10zM408 1423q29 86 66.5 122t78.5 36q25 0 53.5 -12.5t56 -27.5t56.5 -27.5t53 -12.5q33 0 55.5 21.5t38.5 50.5l8 -2q-25 -92 -48 -121t-66 -29q-25 0 -55.5 12.5t-63.5 28t-64.5 28.5t-58.5 13q-31 0 -52.5 -22.5 t-47.5 -59.5z" />
<glyph unicode="&#xd2;" horiz-adv-x="1558" d="M76 662q0 131 47 259t138 228t222 161.5t299 61.5q160 0 287 -56t216 -151.5t137 -221.5t48 -263q0 -154 -56 -283t-154.5 -221t-228.5 -144t-277 -52q-158 0 -284 57t-213 151.5t-134 217t-47 256.5zM213 690q0 -113 43 -226.5t119 -205.5t179 -149.5t226 -57.5 q137 6 240.5 62.5t173.5 143.5t103.5 191.5t33.5 206.5q0 113 -41 227.5t-116.5 208t-181 151.5t-236.5 58q-127 0 -227.5 -56t-171 -144t-107.5 -196.5t-37 -213.5zM606 1536l53 92l291 -219l-4 -12z" />
<glyph unicode="&#xd3;" horiz-adv-x="1558" d="M76 662q0 131 47 259t138 228t222 161.5t299 61.5q160 0 287 -56t216 -151.5t137 -221.5t48 -263q0 -154 -56 -283t-154.5 -221t-228.5 -144t-277 -52q-158 0 -284 57t-213 151.5t-134 217t-47 256.5zM213 690q0 -113 43 -226.5t119 -205.5t179 -149.5t226 -57.5 q137 6 240.5 62.5t173.5 143.5t103.5 191.5t33.5 206.5q0 113 -41 227.5t-116.5 208t-181 151.5t-236.5 58q-127 0 -227.5 -56t-171 -144t-107.5 -196.5t-37 -213.5zM606 1409l291 219l53 -92l-338 -139z" />
<glyph unicode="&#xd4;" horiz-adv-x="1558" d="M76 662q0 131 47 259t138 228t222 161.5t299 61.5q160 0 287 -56t216 -151.5t137 -221.5t48 -263q0 -154 -56 -283t-154.5 -221t-228.5 -144t-277 -52q-158 0 -284 57t-213 151.5t-134 217t-47 256.5zM213 690q0 -113 43 -226.5t119 -205.5t179 -149.5t226 -57.5 q137 6 240.5 62.5t173.5 143.5t103.5 191.5t33.5 206.5q0 113 -41 227.5t-116.5 208t-181 151.5t-236.5 58q-127 0 -227.5 -56t-171 -144t-107.5 -196.5t-37 -213.5zM528 1413l250 211l250 -211l-2 -10l-248 121l-246 -121z" />
<glyph unicode="&#xd5;" horiz-adv-x="1558" d="M76 662q0 131 47 259t138 228t222 161.5t299 61.5q160 0 287 -56t216 -151.5t137 -221.5t48 -263q0 -154 -56 -283t-154.5 -221t-228.5 -144t-277 -52q-158 0 -284 57t-213 151.5t-134 217t-47 256.5zM213 690q0 -113 43 -226.5t119 -205.5t179 -149.5t226 -57.5 q137 6 240.5 62.5t173.5 143.5t103.5 191.5t33.5 206.5q0 113 -41 227.5t-116.5 208t-181 151.5t-236.5 58q-127 0 -227.5 -56t-171 -144t-107.5 -196.5t-37 -213.5zM545 1423q29 86 66.5 122t78.5 36q25 0 53.5 -12.5t56 -27.5t56.5 -27.5t53 -12.5q33 0 55.5 21.5 t39.5 50.5l8 -2q-25 -92 -48.5 -121t-66.5 -29q-25 0 -55.5 12.5t-63.5 28t-64.5 28.5t-58.5 13q-31 0 -52 -22.5t-48 -59.5z" />
<glyph unicode="&#xd6;" horiz-adv-x="1558" d="M76 662q0 131 47 259t138 228t222 161.5t299 61.5q160 0 287 -56t216 -151.5t137 -221.5t48 -263q0 -154 -56 -283t-154.5 -221t-228.5 -144t-277 -52q-158 0 -284 57t-213 151.5t-134 217t-47 256.5zM213 690q0 -113 43 -226.5t119 -205.5t179 -149.5t226 -57.5 q137 6 240.5 62.5t173.5 143.5t103.5 191.5t33.5 206.5q0 113 -41 227.5t-116.5 208t-181 151.5t-236.5 58q-127 0 -227.5 -56t-171 -144t-107.5 -196.5t-37 -213.5zM594 1470q0 29 18.5 47.5t46.5 18.5q29 0 47.5 -18.5t18.5 -47.5t-18.5 -47t-47.5 -18t-47 18.5t-18 46.5z M831 1470q0 29 19.5 47.5t48.5 18.5q25 0 43.5 -18.5t18.5 -47.5t-18.5 -47t-43.5 -18q-29 0 -48.5 18.5t-19.5 46.5z" />
<glyph unicode="&#xd7;" horiz-adv-x="956" d="M156 920l71 71l246 -248l248 248l74 -73l-248 -248l246 -244l-72 -72l-246 246l-246 -246l-71 74l245 244q-16 14 -51 50t-73.5 74t-73.5 72.5t-49 51.5z" />
<glyph unicode="&#xd8;" horiz-adv-x="1558" d="M76 662q0 131 47 259t138 228t222 161.5t299 61.5q104 0 201 -29l45 119h82l-53 -141q96 -41 173 -107.5t130 -150.5t81.5 -181.5t28.5 -201.5q0 -154 -56 -283t-154.5 -221t-228.5 -144t-277 -52q-90 0 -181 22l-47 -127h-84l56 150q-98 39 -176 105.5t-133.5 151.5 t-84 181t-28.5 199zM213 690q0 -80 23.5 -162t65.5 -157.5t100.5 -140t129.5 -107.5l422 1137q-94 41 -198 40q-127 0 -227.5 -56t-171 -144t-107.5 -197t-37 -213zM602 84q88 -33 178 -33q137 6 240.5 62.5t173.5 143.5t103.5 191.5t33.5 206.5q0 80 -21.5 161t-61.5 157 t-97 140.5t-129 109.5z" />
<glyph unicode="&#xd9;" horiz-adv-x="1196" d="M92 1331v21h291v-21h-10q-16 0 -28.5 -11t-22 -27.5t-13.5 -35t-4 -32.5v-809q0 -80 16.5 -147.5t55.5 -117t102.5 -77t155.5 -27.5q102 0 163.5 33t94.5 85t43 117.5t10 129.5v813q0 14 -4 32.5t-13 35t-21.5 27.5t-26.5 11h-11v21h224v-21h-11q-16 0 -27.5 -11 t-20.5 -27.5t-13 -35t-4 -32.5v-807q0 -133 -33 -218t-90 -134.5t-134 -67.5t-163 -18q-92 0 -171 19t-136.5 68.5t-90 134.5t-32.5 214v809q0 14 -4 32.5t-13.5 35t-21.5 27.5t-27 11h-10zM424 1536l53 92l291 -219l-4 -12z" />
<glyph unicode="&#xda;" horiz-adv-x="1196" d="M92 1331v21h291v-21h-10q-16 0 -28.5 -11t-22 -27.5t-13.5 -35t-4 -32.5v-809q0 -80 16.5 -147.5t55.5 -117t102.5 -77t155.5 -27.5q102 0 163.5 33t94.5 85t43 117.5t10 129.5v813q0 14 -4 32.5t-13 35t-21.5 27.5t-26.5 11h-11v21h224v-21h-11q-16 0 -27.5 -11 t-20.5 -27.5t-13 -35t-4 -32.5v-807q0 -133 -33 -218t-90 -134.5t-134 -67.5t-163 -18q-92 0 -171 19t-136.5 68.5t-90 134.5t-32.5 214v809q0 14 -4 32.5t-13.5 35t-21.5 27.5t-27 11h-10zM424 1409l291 219l53 -92l-338 -139z" />
<glyph unicode="&#xdb;" horiz-adv-x="1196" d="M92 1331v21h291v-21h-10q-16 0 -28.5 -11t-22 -27.5t-13.5 -35t-4 -32.5v-809q0 -80 16.5 -147.5t55.5 -117t102.5 -77t155.5 -27.5q102 0 163.5 33t94.5 85t43 117.5t10 129.5v813q0 14 -4 32.5t-13 35t-21.5 27.5t-26.5 11h-11v21h224v-21h-11q-16 0 -27.5 -11 t-20.5 -27.5t-13 -35t-4 -32.5v-807q0 -133 -33 -218t-90 -134.5t-134 -67.5t-163 -18q-92 0 -171 19t-136.5 68.5t-90 134.5t-32.5 214v809q0 14 -4 32.5t-13.5 35t-21.5 27.5t-27 11h-10zM346 1413l250 211l250 -211l-2 -10l-248 121l-246 -121z" />
<glyph unicode="&#xdc;" horiz-adv-x="1196" d="M92 1331v21h291v-21h-10q-16 0 -28.5 -11t-22 -27.5t-13.5 -35t-4 -32.5v-809q0 -80 16.5 -147.5t55.5 -117t102.5 -77t155.5 -27.5q102 0 163.5 33t94.5 85t43 117.5t10 129.5v813q0 14 -4 32.5t-13 35t-21.5 27.5t-26.5 11h-11v21h224v-21h-11q-16 0 -27.5 -11 t-20.5 -27.5t-13 -35t-4 -32.5v-807q0 -133 -33 -218t-90 -134.5t-134 -67.5t-163 -18q-92 0 -171 19t-136.5 68.5t-90 134.5t-32.5 214v809q0 14 -4 32.5t-13.5 35t-21.5 27.5t-27 11h-10zM414 1470q0 29 18.5 47.5t46.5 18.5q29 0 47.5 -18.5t18.5 -47.5t-18.5 -47 t-47.5 -18t-47 18.5t-18 46.5zM651 1470q0 29 19.5 47.5t48.5 18.5q25 0 43 -18.5t18 -47.5t-18.5 -47t-42.5 -18q-29 0 -48.5 18.5t-19.5 46.5z" />
<glyph unicode="&#xdd;" horiz-adv-x="1083" d="M6 1331v21h283v-21q-14 -2 -26.5 -12t-12.5 -31q0 -10 6 -22l307 -539l295 510q8 16 11 24.5t3 20.5q-4 33 -23.5 41t-23.5 8v21h219v-21q-31 0 -62.5 -38t-53.5 -76l-320 -553v-531q0 -16 5 -34.5t13.5 -36t20.5 -30t29 -12.5h10v-20h-293v20h10q16 0 28.5 11.5t22 29 t13.5 37t4 35.5v512l-330 565q-10 16 -24.5 37t-30.5 39.5t-34.5 31.5t-35.5 13h-10zM369 1409l290 219l54 -92l-338 -139z" />
<glyph unicode="&#xde;" horiz-adv-x="937" d="M90 0v20h10q16 0 28.5 11.5t22 29t13.5 37t4 35.5v1092q0 14 -4 32.5t-13.5 35t-21.5 27.5t-29 11h-10v21h293v-21h-10q-14 0 -26.5 -11t-21 -26.5t-13.5 -35t-5 -33.5v-37h76q227 0 345 -86t118 -246q0 -88 -41 -155.5t-107.5 -113.5t-149.5 -70.5t-165 -24.5h-76v-359 q0 -16 4 -35.5t13.5 -36t21 -29t27.5 -12.5h10v-20h-293zM307 563h60q82 0 146.5 22.5t107.5 59.5t65.5 84t22.5 96q0 59 -19.5 112.5t-63.5 93.5t-116 62.5t-176 22.5h-27v-553z" />
<glyph unicode="&#xdf;" horiz-adv-x="1071" d="M90 0v20q14 0 26.5 11.5t21.5 29t13.5 37t4.5 35.5v858q0 90 32.5 160t88 116t126 69.5t146.5 23.5q70 0 137.5 -19.5t120.5 -60.5t86 -102.5t33 -145.5q0 -98 -53.5 -171t-149.5 -126q137 -59 200.5 -153.5t63.5 -204.5q0 -80 -32.5 -148.5t-96 -120t-155 -80 t-209.5 -28.5v20q80 0 145.5 30t111.5 77t70.5 106.5t24.5 118.5q0 70 -31 132.5t-82 109.5t-119.5 74.5t-144.5 27.5h-43v72h53q61 0 116.5 17.5t98.5 50t68.5 80t25.5 108.5q0 127 -67.5 194.5t-171.5 67.5q-111 0 -183.5 -81t-72.5 -230v-842q0 -16 5 -35.5t13 -36 t20.5 -29t28.5 -12.5v-20h-270z" />
<glyph unicode="&#xe0;" horiz-adv-x="935" d="M74 199q0 70 38 123t109.5 94t175 74.5t236.5 66.5q-4 80 -33 129t-67.5 77t-81.5 37t-74 9q-53 0 -93 -16.5t-70 -42t-50.5 -55t-32.5 -56.5h-18v149q16 2 30.5 10.5t34.5 16.5q31 12 84 35.5t150 23.5q113 0 182.5 -28.5t107 -75.5t50 -107.5t12.5 -123.5v-406 q0 -41 18.5 -77t48.5 -36v-20h-198v104l-10 -10q-51 -51 -118 -79.5t-161 -28.5q-72 0 -123 16t-84 46t-48 69t-15 82zM205 215q0 -66 53 -109t139 -43q68 0 119 30t94 77l23 25v292l-21 -4q-49 -12 -119.5 -32.5t-134 -53t-108.5 -78t-45 -104.5zM295 1044l53 93l291 -219 l-4 -13z" />
<glyph unicode="&#xe1;" horiz-adv-x="935" d="M74 199q0 70 38 123t109.5 94t175 74.5t236.5 66.5q-4 80 -33 129t-67.5 77t-81.5 37t-74 9q-53 0 -93 -16.5t-70 -42t-50.5 -55t-32.5 -56.5h-18v149q16 2 30.5 10.5t34.5 16.5q31 12 84 35.5t150 23.5q113 0 182.5 -28.5t107 -75.5t50 -107.5t12.5 -123.5v-406 q0 -41 18.5 -77t48.5 -36v-20h-198v104l-10 -10q-51 -51 -118 -79.5t-161 -28.5q-72 0 -123 16t-84 46t-48 69t-15 82zM205 215q0 -66 53 -109t139 -43q68 0 119 30t94 77l23 25v292l-21 -4q-49 -12 -119.5 -32.5t-134 -53t-108.5 -78t-45 -104.5zM295 918l291 219l53 -93 l-338 -139z" />
<glyph unicode="&#xe2;" horiz-adv-x="935" d="M74 199q0 70 38 123t109.5 94t175 74.5t236.5 66.5q-4 80 -33 129t-67.5 77t-81.5 37t-74 9q-53 0 -93 -16.5t-70 -42t-50.5 -55t-32.5 -56.5h-18v149q16 2 30.5 10.5t34.5 16.5q31 12 84 35.5t150 23.5q113 0 182.5 -28.5t107 -75.5t50 -107.5t12.5 -123.5v-406 q0 -41 18.5 -77t48.5 -36v-20h-198v104l-10 -10q-51 -51 -118 -79.5t-161 -28.5q-72 0 -123 16t-84 46t-48 69t-15 82zM156 922l250 211l249 -211l-2 -11l-247 121l-246 -121zM205 215q0 -66 53 -109t139 -43q68 0 119 30t94 77l23 25v292l-21 -4q-49 -12 -119.5 -32.5 t-134 -53t-108.5 -78t-45 -104.5z" />
<glyph unicode="&#xe3;" horiz-adv-x="935" d="M74 199q0 70 38 123t109.5 94t175 74.5t236.5 66.5q-4 80 -33 129t-67.5 77t-81.5 37t-74 9q-53 0 -93 -16.5t-70 -42t-50.5 -55t-32.5 -56.5h-18v149q16 2 30.5 10.5t34.5 16.5q31 12 84 35.5t150 23.5q113 0 182.5 -28.5t107 -75.5t50 -107.5t12.5 -123.5v-406 q0 -41 18.5 -77t48.5 -36v-20h-198v104l-10 -10q-51 -51 -118 -79.5t-161 -28.5q-72 0 -123 16t-84 46t-48 69t-15 82zM195 969q29 86 66.5 121.5t78.5 35.5q25 0 53.5 -12t56 -27.5t56.5 -27.5t53 -12q33 0 55.5 21.5t38.5 49.5l9 -2q-25 -92 -48.5 -120.5t-66.5 -28.5 q-25 0 -55.5 12t-63.5 27.5t-64.5 29t-58.5 13.5q-31 0 -52.5 -22.5t-47.5 -59.5zM205 215q0 -66 53 -109t139 -43q68 0 119 30t94 77l23 25v292l-21 -4q-49 -12 -119.5 -32.5t-134 -53t-108.5 -78t-45 -104.5z" />
<glyph unicode="&#xe4;" horiz-adv-x="935" d="M74 199q0 70 38 123t109.5 94t175 74.5t236.5 66.5q-4 80 -33 129t-67.5 77t-81.5 37t-74 9q-53 0 -93 -16.5t-70 -42t-50.5 -55t-32.5 -56.5h-18v149q16 2 30.5 10.5t34.5 16.5q31 12 84 35.5t150 23.5q113 0 182.5 -28.5t107 -75.5t50 -107.5t12.5 -123.5v-406 q0 -41 18.5 -77t48.5 -36v-20h-198v104l-10 -10q-51 -51 -118 -79.5t-161 -28.5q-72 0 -123 16t-84 46t-48 69t-15 82zM205 215q0 -66 53 -109t139 -43q68 0 119 30t94 77l23 25v292l-21 -4q-49 -12 -119.5 -32.5t-134 -53t-108.5 -78t-45 -104.5zM225 1008q0 29 18.5 47 t47.5 18t47 -18t18 -47t-18.5 -47.5t-46.5 -18.5q-29 0 -47.5 18.5t-18.5 47.5zM463 1008q0 29 19.5 47t47.5 18q25 0 43.5 -18t18.5 -47t-18.5 -47.5t-43.5 -18.5q-29 0 -48 18.5t-19 47.5z" />
<glyph unicode="&#xe5;" horiz-adv-x="935" d="M74 199q0 70 38 123t109.5 94t175 74.5t236.5 66.5q-4 80 -33 129t-67.5 77t-81.5 37t-74 9q-53 0 -93 -16.5t-70 -42t-50.5 -55t-32.5 -56.5h-18v149q16 2 30.5 10.5t34.5 16.5q31 12 84 35.5t150 23.5q113 0 182.5 -28.5t107 -75.5t50 -107.5t12.5 -123.5v-406 q0 -41 18.5 -77t48.5 -36v-20h-198v104l-10 -10q-51 -51 -118 -79.5t-161 -28.5q-72 0 -123 16t-84 46t-48 69t-15 82zM205 215q0 -66 53 -109t139 -43q68 0 119 30t94 77l23 25v292l-21 -4q-49 -12 -119.5 -32.5t-134 -53t-108.5 -78t-45 -104.5zM260 1092q0 53 42 87.5 t106 34.5q63 0 106 -34.5t43 -87.5t-43 -87t-106 -34t-105.5 34t-42.5 87zM317 1104q0 -43 31 -73t74 -30q35 0 57.5 24t22.5 60q0 37 -33 68t-74 31q-33 0 -55.5 -23.5t-22.5 -56.5z" />
<glyph unicode="&#xe6;" horiz-adv-x="1554" d="M92 201q0 70 37 123t108.5 94t175 74.5t236.5 66.5q-4 80 -32.5 129t-67.5 77t-81 37t-75 9q-53 0 -93 -16.5t-68.5 -42t-49 -55t-32.5 -56.5h-19v150q16 2 31.5 9t32.5 17q23 16 79 38t154 22q137 0 210 -42t107 -108q53 63 137.5 106.5t200.5 43.5q102 0 176 -35 t120 -96.5t67.5 -145.5t21.5 -184h-688v-19q8 -68 33 -129t67 -108t100 -75t138 -28q45 0 95.5 13.5t93.5 38t76.5 60.5t46.5 81h20v-154q-14 0 -29.5 -8t-36.5 -20q-41 -25 -110.5 -52.5t-183.5 -27.5q-119 0 -217.5 46t-157.5 140q-16 -16 -38 -38.5t-38 -39.5 q-49 -51 -115.5 -79.5t-163.5 -28.5q-72 0 -123 16t-82.5 46t-47 69t-15.5 82zM221 215q0 -66 53.5 -107.5t139.5 -41.5q70 0 119 30.5t94 71.5l61 59q-39 96 -39 215v25.5t2 26.5l-22 -9q-49 -12 -119 -32.5t-134.5 -53t-109.5 -78t-45 -106.5zM780 489h561q-2 59 -17 117 t-48 103t-82 72.5t-119 27.5q-68 0 -120 -26.5t-88 -68.5t-57.5 -96.5t-29.5 -109.5v-19z" />
<glyph unicode="&#xe7;" horiz-adv-x="892" d="M74 430q0 88 31.5 168t91 141.5t146.5 98t198 36.5q76 0 123 -17t79 -34q18 -10 36 -16t36 -6v-156h-20q-10 39 -37 68.5t-61.5 50t-75.5 31t-80 10.5q-84 0 -147.5 -30t-104.5 -78t-61.5 -109.5t-20.5 -126.5q0 -76 24.5 -148.5t70.5 -130t111.5 -92.5t147.5 -35h17 q51 0 96 16.5t77.5 43t52 58.5t23.5 60h21v-159q-16 0 -31.5 -7.5t-34.5 -17.5q-33 -16 -78 -36.5t-114 -24.5l-53 -90q92 -10 133 -44t41 -75q0 -53 -60.5 -99.5t-171.5 -46.5q-14 0 -26.5 1t-24.5 4q-6 0 -14 1t-15 1v16h23q39 0 72.5 9t59.5 25.5t41 36t15 42.5 q0 33 -41 64.5t-116 41.5l69 113q-98 6 -180 40.5t-141.5 94t-93 137.5t-33.5 170z" />
<glyph unicode="&#xe8;" d="M76 440q0 76 25.5 154t77.5 140.5t134 101t197 38.5q102 0 179 -34.5t127 -96t74.5 -145.5t24.5 -184h-710q8 -72 34.5 -136.5t70.5 -113.5t107.5 -79t147.5 -30q45 0 95.5 13.5t93.5 38t76.5 60.5t46.5 81h18v-154q-12 0 -27.5 -8t-36.5 -20q-41 -25 -110.5 -52.5 t-183.5 -27.5q-92 0 -175 26.5t-146.5 82t-101.5 141.5t-38 204zM205 487h583q-2 59 -21 117t-54 103t-88 72.5t-123 27.5q-72 0 -124 -28.5t-89 -74t-57.5 -102.5t-26.5 -115zM334 1090l53 92l291 -219l-4 -13z" />
<glyph unicode="&#xe9;" d="M76 440q0 76 25.5 154t77.5 140.5t134 101t197 38.5q102 0 179 -34.5t127 -96t74.5 -145.5t24.5 -184h-710q8 -72 34.5 -136.5t70.5 -113.5t107.5 -79t147.5 -30q45 0 95.5 13.5t93.5 38t76.5 60.5t46.5 81h18v-154q-12 0 -27.5 -8t-36.5 -20q-41 -25 -110.5 -52.5 t-183.5 -27.5q-92 0 -175 26.5t-146.5 82t-101.5 141.5t-38 204zM205 487h583q-2 59 -21 117t-54 103t-88 72.5t-123 27.5q-72 0 -124 -28.5t-89 -74t-57.5 -102.5t-26.5 -115zM344 985l291 219l53 -92l-338 -139z" />
<glyph unicode="&#xea;" d="M76 440q0 76 25.5 154t77.5 140.5t134 101t197 38.5q102 0 179 -34.5t127 -96t74.5 -145.5t24.5 -184h-710q8 -72 34.5 -136.5t70.5 -113.5t107.5 -79t147.5 -30q45 0 95.5 13.5t93.5 38t76.5 60.5t46.5 81h18v-154q-12 0 -27.5 -8t-36.5 -20q-41 -25 -110.5 -52.5 t-183.5 -27.5q-92 0 -175 26.5t-146.5 82t-101.5 141.5t-38 204zM205 487h583q-2 59 -21 117t-54 103t-88 72.5t-123 27.5q-72 0 -124 -28.5t-89 -74t-57.5 -102.5t-26.5 -115zM268 993l250 211l250 -211l-2 -10l-248 121l-246 -121z" />
<glyph unicode="&#xeb;" d="M76 440q0 76 25.5 154t77.5 140.5t134 101t197 38.5q102 0 179 -34.5t127 -96t74.5 -145.5t24.5 -184h-710q8 -72 34.5 -136.5t70.5 -113.5t107.5 -79t147.5 -30q45 0 95.5 13.5t93.5 38t76.5 60.5t46.5 81h18v-154q-12 0 -27.5 -8t-36.5 -20q-41 -25 -110.5 -52.5 t-183.5 -27.5q-92 0 -175 26.5t-146.5 82t-101.5 141.5t-38 204zM205 487h583q-2 59 -21 117t-54 103t-88 72.5t-123 27.5q-72 0 -124 -28.5t-89 -74t-57.5 -102.5t-26.5 -115zM328 1047q0 29 18.5 47t46.5 18q29 0 47.5 -18t18.5 -47t-18.5 -47.5t-47.5 -18.5t-47 18.5 t-18 47.5zM565 1047q0 29 19.5 47t48.5 18q25 0 43 -18t18 -47t-18.5 -47.5t-42.5 -18.5q-29 0 -48.5 18.5t-19.5 47.5z" />
<glyph unicode="&#xec;" horiz-adv-x="514" d="M68 1044l53 93l291 -219l-4 -13zM117 801v18l205 66v-752q0 -16 4 -35.5t12 -36t20.5 -29t28.5 -12.5v-20h-266v20q16 0 28.5 12.5t20.5 29t12 36t4 35.5v567q0 35 -10 67t-59 34z" />
<glyph unicode="&#xed;" horiz-adv-x="514" d="M51 918l291 219l53 -93l-338 -139zM121 805v10l196 66v-748q0 -14 4.5 -33.5t12.5 -38t20.5 -31t28.5 -14.5v-12h-258v12q16 2 28.5 14.5t20.5 31t12 38t4 33.5v567q0 35 -11 68t-58 37z" />
<glyph unicode="&#xee;" horiz-adv-x="514" d="M6 922l250 211l250 -211l-2 -11l-248 121l-246 -121zM117 801v18l205 66v-752q0 -16 4 -35.5t12 -36t20.5 -29t28.5 -12.5v-20h-266v20q16 0 28.5 12.5t20.5 29t12 36t4 35.5v567q0 35 -10 67t-59 34z" />
<glyph unicode="&#xef;" horiz-adv-x="514" d="M72 979q0 29 18.5 47t46.5 18q29 0 47.5 -18t18.5 -47t-18.5 -47.5t-47.5 -18.5t-47 18.5t-18 47.5zM121 805v10l196 66v-748q0 -14 4.5 -33.5t13.5 -38t20.5 -31t27.5 -14.5v-12h-258v12q16 2 28.5 14.5t20.5 31t12 38t4 33.5v567q0 35 -11 68t-58 37zM309 979 q0 29 18.5 47t47.5 18q27 0 45 -18t18 -47t-18.5 -47.5t-44.5 -18.5q-29 0 -47.5 18.5t-18.5 47.5z" />
<glyph unicode="&#xf0;" horiz-adv-x="1067" d="M80 416q0 100 35 183t96 142.5t145 92t183 32.5q127 0 223 -51q-47 96 -99.5 165t-127.5 128q-35 -41 -69 -88t-67 -90h-106l176 229q-82 53 -180.5 95t-206.5 55v18h39q100 0 202.5 -29.5t190.5 -76.5l98 129h109l-133 -172q88 -61 160.5 -139t125 -171.5t81 -199 t28.5 -222.5q0 -88 -24.5 -172t-79 -150.5t-141.5 -106.5t-212 -40q-102 0 -184 34t-140.5 92.5t-90 138.5t-31.5 174zM213 438q0 -76 23.5 -146.5t67.5 -125.5t105.5 -88t137.5 -33t134 33t97 85t58.5 117.5t19.5 131.5q0 68 -20.5 136t-63.5 124.5t-107.5 91.5t-150.5 35 q-74 0 -130 -32t-94 -83t-57.5 -115.5t-19.5 -130.5z" />
<glyph unicode="&#xf1;" horiz-adv-x="1089" d="M90 799v18l205 66v-113q14 16 36.5 35.5t54.5 37t74 29t99 11.5q96 0 164 -33t111 -85t62 -114.5t19 -122.5v-395q0 -16 4.5 -35.5t13.5 -36t20.5 -29t27.5 -12.5v-20h-264v20q14 0 26.5 12.5t21.5 29t13 36t4 35.5v381q0 74 -20.5 129t-55 92t-78.5 54.5t-89 17.5 t-89 -18.5t-78 -48t-55.5 -69.5t-21.5 -83v-455q0 -16 4 -35.5t13.5 -36t20.5 -29t27 -12.5v-20h-266v20q14 0 26.5 12.5t22 29t13.5 36t4 35.5v565q0 35 -10.5 67t-59.5 34zM309 983q29 86 67 122t79 36q25 0 53.5 -12.5t56 -28t56 -27.5t53.5 -12q33 0 55.5 21.5 t38.5 50.5l8 -3q-25 -92 -48 -120.5t-66 -28.5q-25 0 -56 12.5t-63.5 27.5t-64.5 28.5t-58 13.5q-31 0 -52.5 -22.5t-48.5 -59.5z" />
<glyph unicode="&#xf2;" horiz-adv-x="1071" d="M76 424q0 100 34.5 183t96 142.5t145.5 92t183 32.5q98 0 180 -31.5t141 -89t92 -136t33 -173.5q0 -88 -29.5 -171t-88 -146.5t-143.5 -102t-198 -38.5q-102 0 -184 33.5t-140.5 92t-90 138.5t-31.5 174zM209 446q0 -76 23.5 -146.5t67.5 -125.5t105.5 -88t137.5 -33 t134 33t97 85t58.5 117.5t19.5 131.5q0 68 -20.5 136.5t-63.5 124.5t-107.5 91t-150.5 35q-74 -4 -130 -36t-94 -82t-57.5 -113.5t-19.5 -129.5zM362 1130l54 93l291 -219l-5 -13z" />
<glyph unicode="&#xf3;" horiz-adv-x="1071" d="M76 424q0 100 34.5 183t96 142.5t145.5 92t183 32.5q98 0 180 -31.5t141 -89t92 -136t33 -173.5q0 -88 -29.5 -171t-88 -146.5t-143.5 -102t-198 -38.5q-102 0 -184 33.5t-140.5 92t-90 138.5t-31.5 174zM209 446q0 -76 23.5 -146.5t67.5 -125.5t105.5 -88t137.5 -33 t134 33t97 85t58.5 117.5t19.5 131.5q0 68 -20.5 136.5t-63.5 124.5t-107.5 91t-150.5 35q-74 -4 -130 -36t-94 -82t-57.5 -113.5t-19.5 -129.5zM362 1010l291 219l54 -92l-338 -140z" />
<glyph unicode="&#xf4;" horiz-adv-x="1071" d="M76 424q0 100 34.5 183t96 142.5t145.5 92t183 32.5q98 0 180 -31.5t141 -89t92 -136t33 -173.5q0 -88 -29.5 -171t-88 -146.5t-143.5 -102t-198 -38.5q-102 0 -184 33.5t-140.5 92t-90 138.5t-31.5 174zM209 446q0 -76 23.5 -146.5t67.5 -125.5t105.5 -88t137.5 -33 t134 33t97 85t58.5 117.5t19.5 131.5q0 68 -20.5 136.5t-63.5 124.5t-107.5 91t-150.5 35q-74 -4 -130 -36t-94 -82t-57.5 -113.5t-19.5 -129.5zM285 993l250 211l249 -211l-2 -10l-247 121l-246 -121z" />
<glyph unicode="&#xf5;" horiz-adv-x="1071" d="M76 424q0 100 34.5 183t96 142.5t145.5 92t183 32.5q98 0 180 -31.5t141 -89t92 -136t33 -173.5q0 -88 -29.5 -171t-88 -146.5t-143.5 -102t-198 -38.5q-102 0 -184 33.5t-140.5 92t-90 138.5t-31.5 174zM209 446q0 -76 23.5 -146.5t67.5 -125.5t105.5 -88t137.5 -33 t134 33t97 85t58.5 117.5t19.5 131.5q0 68 -20.5 136.5t-63.5 124.5t-107.5 91t-150.5 35q-74 -4 -130 -36t-94 -82t-57.5 -113.5t-19.5 -129.5zM301 989q29 86 67 122t78 36q25 0 53.5 -12.5t56.5 -27.5t56.5 -27.5t53.5 -12.5q33 0 55 21.5t39 50.5l8 -2 q-25 -92 -48.5 -121t-66.5 -29q-25 0 -55.5 12.5t-63 27.5t-64.5 28.5t-58 13.5q-31 0 -52.5 -22.5t-48.5 -59.5z" />
<glyph unicode="&#xf6;" horiz-adv-x="1071" d="M76 424q0 100 34.5 183t96 142.5t145.5 92t183 32.5q98 0 180 -31.5t141 -89t92 -136t33 -173.5q0 -88 -29.5 -171t-88 -146.5t-143.5 -102t-198 -38.5q-102 0 -184 33.5t-140.5 92t-90 138.5t-31.5 174zM209 446q0 -76 23.5 -146.5t67.5 -125.5t105.5 -88t137.5 -33 t134 33t97 85t58.5 117.5t19.5 131.5q0 68 -20.5 136.5t-63.5 124.5t-107.5 91t-150.5 35q-74 -4 -130 -36t-94 -82t-57.5 -113.5t-19.5 -129.5zM350 1051q0 29 18.5 47t47.5 18t47 -18t18 -47t-18.5 -47.5t-46.5 -18.5q-29 0 -47.5 18.5t-18.5 47.5zM588 1051q0 29 19.5 47 t47.5 18q25 0 43.5 -18t18.5 -47t-18.5 -47.5t-43.5 -18.5q-29 0 -48 18.5t-19 47.5z" />
<glyph unicode="&#xf7;" horiz-adv-x="1013" d="M45 618v101h866v-101h-866zM367 375q0 41 27.5 69.5t66.5 28.5q41 0 69.5 -28.5t28.5 -69.5t-28.5 -68.5t-69.5 -27.5q-39 0 -66.5 27.5t-27.5 68.5zM367 983q0 41 27.5 68.5t66.5 27.5q41 0 69.5 -27.5t28.5 -68.5t-28.5 -69.5t-69.5 -28.5q-39 0 -66.5 28.5t-27.5 69.5 z" />
<glyph unicode="&#xf8;" horiz-adv-x="1071" d="M76 424q0 100 34.5 183t96 142.5t145.5 92t183 32.5q51 0 101 -11t91 -27l29 45h104l-53 -86q76 -57 125 -148.5t49 -202.5q0 -88 -29.5 -171t-88 -146.5t-143.5 -102t-198 -38.5q-55 0 -106 11t-97 32q-8 -10 -15 -24.5t-15 -24.5h-105l58 92q-78 59 -122 150t-44 202z M209 446q0 -76 25.5 -149.5t70.5 -126.5q92 145 186.5 295.5t186.5 296.5q-35 20 -78 32.5t-90 12.5q-74 -4 -130 -36t-94 -82t-57.5 -113.5t-19.5 -129.5zM371 109q78 -55 172 -56q76 0 134 33t97 85t58.5 117.5t19.5 131.5q0 72 -25.5 148.5t-78.5 133.5 q-92 -147 -188.5 -296.5t-188.5 -296.5z" />
<glyph unicode="&#xf9;" horiz-adv-x="1073" d="M100 799v18l207 66v-523q0 -156 67.5 -229.5t166.5 -73.5q53 0 95 23.5t71.5 56.5t45 68t15.5 57v436q0 18 -1 36t-8 32t-21.5 23.5t-41.5 9.5v18l207 66v-750q0 -14 4 -33.5t11.5 -37t19.5 -30t29 -12.5v-20h-199v113q-31 -45 -90.5 -88t-153.5 -43q-119 0 -188.5 40.5 t-106 104t-47 138.5t-10.5 141v292q0 18 -1 36t-8 32t-21.5 23.5t-41.5 9.5zM362 1122l54 92l291 -219l-5 -12z" />
<glyph unicode="&#xfa;" horiz-adv-x="1073" d="M100 799v18l207 66v-523q0 -156 67.5 -229.5t166.5 -73.5q53 0 95 23.5t71.5 56.5t45 68t15.5 57v436q0 18 -1 36t-8 32t-21.5 23.5t-41.5 9.5v18l207 66v-750q0 -14 4 -33.5t11.5 -37t19.5 -30t29 -12.5v-20h-199v113q-31 -45 -90.5 -88t-153.5 -43q-119 0 -188.5 40.5 t-106 104t-47 138.5t-10.5 141v292q0 18 -1 36t-8 32t-21.5 23.5t-41.5 9.5zM362 1036l291 219l54 -92l-338 -139z" />
<glyph unicode="&#xfb;" horiz-adv-x="1073" d="M100 799v18l207 66v-523q0 -156 67.5 -229.5t166.5 -73.5q53 0 95 23.5t71.5 56.5t45 68t15.5 57v436q0 18 -1 36t-8 32t-21.5 23.5t-41.5 9.5v18l207 66v-750q0 -14 4 -33.5t11.5 -37t19.5 -30t29 -12.5v-20h-199v113q-31 -45 -90.5 -88t-153.5 -43q-119 0 -188.5 40.5 t-106 104t-47 138.5t-10.5 141v292q0 18 -1 36t-8 32t-21.5 23.5t-41.5 9.5zM285 999l250 211l249 -211l-2 -10l-247 121l-246 -121z" />
<glyph unicode="&#xfc;" horiz-adv-x="1073" d="M100 799v18l207 66v-523q0 -156 67.5 -229.5t166.5 -73.5q53 0 95 23.5t71.5 56.5t45 68t15.5 57v436q0 18 -1 36t-8 32t-21.5 23.5t-41.5 9.5v18l207 66v-750q0 -14 4 -33.5t11.5 -37t19.5 -30t29 -12.5v-20h-199v113q-31 -45 -90.5 -88t-153.5 -43q-119 0 -188.5 40.5 t-106 104t-47 138.5t-10.5 141v292q0 18 -1 36t-8 32t-21.5 23.5t-41.5 9.5zM352 1083q0 29 18.5 47.5t47.5 18.5t47 -18.5t18 -47.5t-18.5 -47t-46.5 -18q-29 0 -47.5 18.5t-18.5 46.5zM590 1083q0 29 19.5 47.5t47.5 18.5q25 0 43.5 -18.5t18.5 -47.5t-18.5 -47t-43.5 -18 q-29 0 -48 18.5t-19 46.5z" />
<glyph unicode="&#xfd;" horiz-adv-x="970" d="M33 840v20h270v-20q-8 0 -20.5 -14.5t-12.5 -37.5q0 -18 9 -32l251 -580l242 592q6 14 6 27q0 20 -13 32.5t-28 12.5v20h199v-20q-33 0 -56.5 -28t-37.5 -62l-422 -1043q-29 -86 -73 -116.5t-91 -30.5q-31 0 -54.5 8t-41 19.5t-27.5 21.5t-12 16l67 166q10 -37 21 -55 q10 -20 28.5 -36.5t45.5 -16.5q49 0 77 71l101 252l-330 746q-10 25 -33.5 56.5t-64.5 31.5zM350 1047l291 219l53 -92l-338 -140z" />
<glyph unicode="&#xfe;" horiz-adv-x="1112" d="M94 -408q14 0 26.5 12.5t22 29t13.5 36t4 35.5v1475q0 18 -1 35.5t-7.5 31t-19.5 22.5t-38 11v20l201 62v-590q41 49 99 77t134 28q111 0 192 -38t135 -99.5t81 -141.5t27 -164q0 -82 -26 -161.5t-78 -143t-130 -102.5t-184 -39q-63 0 -130 33.5t-120 84.5v-401 q0 -16 4 -35.5t13.5 -36t20.5 -29t27 -12.5v-20h-266v20zM295 309q0 -55 22.5 -101t58.5 -80t81 -52.5t90 -18.5q72 2 125 33t88 80t51 109.5t16 126.5q0 74 -20.5 145.5t-59 127.5t-95 92t-128.5 36q-43 0 -85 -16.5t-73.5 -47t-51 -72.5t-19.5 -93v-269z" />
<glyph unicode="&#xff;" horiz-adv-x="970" d="M33 840v20h270v-20q-8 0 -20.5 -14.5t-12.5 -37.5q0 -18 9 -32l251 -580l242 592q6 14 6 27q0 20 -13 32.5t-28 12.5v20h199v-20q-33 0 -56.5 -28t-37.5 -62l-422 -1043q-29 -86 -73 -116.5t-91 -30.5q-31 0 -54.5 8t-41 19.5t-27.5 21.5t-12 16l67 166q10 -37 21 -55 q10 -20 28.5 -36.5t45.5 -16.5q49 0 77 71l101 252l-330 746q-10 25 -33.5 56.5t-64.5 31.5zM344 1126q0 29 18.5 47.5t47.5 18.5t47 -18.5t18 -47.5t-18.5 -47t-46.5 -18q-29 0 -47.5 18.5t-18.5 46.5zM582 1126q0 29 19.5 47.5t47.5 18.5q25 0 43.5 -18.5t18.5 -47.5 t-18.5 -47t-43.5 -18q-29 0 -48 18.5t-19 46.5z" />
<glyph unicode="&#x152;" horiz-adv-x="1828" d="M92 659q0 133 44 261.5t131 227.5t215 160.5t296 61.5q45 0 89 -5t85 -15h742v-191h-21q0 47 -31.5 83t-99.5 36h-399v-518h321q47 0 78 28.5t31 67.5h20v-256h-20q0 37 -31 63.5t-78 26.5h-321v-620h428q39 0 67.5 18t48 46t28.5 59.5t9 58.5h21v-250h-807 q-92 -25 -188 -25q-158 0 -281 57.5t-207 152t-127 217t-43 255.5zM227 688q0 -113 40 -226.5t112 -205.5t173 -149.5t224 -57.5q61 0 120.5 16.5t109.5 38.5v1125q-55 39 -122 54t-132 15q-127 0 -225.5 -56t-165 -144t-100.5 -197t-34 -213z" />
<glyph unicode="&#x153;" horiz-adv-x="1720" d="M92 422q0 100 32 183t89 142.5t138 92t179 32.5q125 0 213 -51t146 -141q51 86 132 140t218 54q102 0 175 -34.5t120 -96t68.5 -145.5t21.5 -184h-670q6 -74 32 -138.5t69 -113.5t103 -78t136 -29q45 0 91.5 13.5t86 38t69.5 60.5t42 81h21v-154q-14 0 -28.5 -8 t-33.5 -20q-35 -25 -98.5 -52.5t-177.5 -27.5q-123 0 -220.5 49t-158.5 155q-55 -86 -144.5 -146t-224.5 -60q-102 0 -182 33.5t-134.5 92t-82 138.5t-27.5 174zM223 444q0 -76 20.5 -146.5t60.5 -125.5t99.5 -88t135.5 -33t130 33t89 85t51 117.5t16 131.5q0 68 -17 136.5 t-56 124.5t-99.5 91t-146.5 35q-74 0 -128 -32t-88 -83t-50.5 -115.5t-16.5 -130.5zM954 487h543q-2 59 -17.5 117t-48 103t-81.5 72.5t-119 27.5q-63 0 -113.5 -26.5t-85.5 -70.5t-55.5 -101.5t-22.5 -121.5z" />
<glyph unicode="&#x178;" horiz-adv-x="1083" d="M6 1331v21h283v-21q-14 -2 -26.5 -12t-12.5 -31q0 -10 6 -22l307 -539l295 510q8 16 11 24.5t3 20.5q-4 33 -23.5 41t-23.5 8v21h219v-21q-31 0 -62.5 -38t-53.5 -76l-320 -553v-531q0 -16 5 -34.5t13.5 -36t20.5 -30t29 -12.5h10v-20h-293v20h10q16 0 28.5 11.5t22 29 t13.5 37t4 35.5v512l-330 565q-10 16 -24.5 37t-30.5 39.5t-34.5 31.5t-35.5 13h-10zM356 1470q0 29 18.5 47.5t47.5 18.5t47 -18.5t18 -47.5t-18 -47t-47 -18t-47.5 18.5t-18.5 46.5zM594 1470q0 29 19.5 47.5t48.5 18.5q25 0 43 -18.5t18 -47.5t-18.5 -47t-42.5 -18 q-29 0 -48.5 18.5t-19.5 46.5z" />
<glyph unicode="&#x2c6;" horiz-adv-x="548" d="M29 922l250 211l249 -211l-2 -11l-247 121l-246 -121z" />
<glyph unicode="&#x2dc;" horiz-adv-x="581" d="M57 932q29 86 67 122t79 36q25 0 53.5 -12.5t56 -28t56 -27.5t53.5 -12q33 0 55.5 21.5t38.5 49.5l8 -2q-25 -92 -48 -120.5t-66 -28.5q-25 0 -55.5 12t-63.5 27.5t-64.5 29t-58.5 13.5q-31 0 -52.5 -22.5t-47.5 -59.5z" />
<glyph unicode="&#x2000;" horiz-adv-x="828" />
<glyph unicode="&#x2001;" horiz-adv-x="1657" />
<glyph unicode="&#x2002;" horiz-adv-x="828" />
<glyph unicode="&#x2003;" horiz-adv-x="1657" />
<glyph unicode="&#x2004;" horiz-adv-x="552" />
<glyph unicode="&#x2005;" horiz-adv-x="414" />
<glyph unicode="&#x2006;" horiz-adv-x="276" />
<glyph unicode="&#x2007;" horiz-adv-x="276" />
<glyph unicode="&#x2008;" horiz-adv-x="207" />
<glyph unicode="&#x2009;" horiz-adv-x="331" />
<glyph unicode="&#x200a;" horiz-adv-x="92" />
<glyph unicode="&#x2010;" horiz-adv-x="610" d="M59 422v102h465v-102h-465z" />
<glyph unicode="&#x2011;" horiz-adv-x="610" d="M59 422v102h465v-102h-465z" />
<glyph unicode="&#x2012;" horiz-adv-x="610" d="M59 422v102h465v-102h-465z" />
<glyph unicode="&#x2013;" horiz-adv-x="1093" d="M102 422v102h867v-102h-867z" />
<glyph unicode="&#x2014;" horiz-adv-x="1824" d="M61 422v102h1717v-102h-1717z" />
<glyph unicode="&#x2018;" horiz-adv-x="260" d="M10 1069q0 31 8.5 66.5t33 74.5t67.5 77t114 73l13 -19q-41 -39 -64.5 -67.5t-36 -53t-15.5 -45t-3 -42.5q0 -16 9 -23.5t24 -15.5q16 -10 33.5 -23.5t17.5 -48.5q0 -37 -24.5 -62.5t-61.5 -25.5q-59 0 -87 41t-28 94z" />
<glyph unicode="&#x2019;" horiz-adv-x="260" d="M10 950q41 39 64.5 68t36 52.5t15.5 44t3 42.5q0 16 -9 24.5t-24 16.5q-16 10 -32.5 23.5t-16.5 48.5q0 39 24.5 63.5t59.5 24.5q59 0 87 -40t28 -93q0 -33 -8.5 -70t-32 -76t-67.5 -76.5t-115 -70.5z" />
<glyph unicode="&#x201a;" horiz-adv-x="247" d="M-8 -217q41 37 64.5 66.5t34.5 53t14.5 44t3.5 43.5q0 20 -13.5 29.5t-29 17.5t-27.5 21.5t-12 43.5q0 39 24.5 63.5t59.5 24.5q59 0 86.5 -40.5t27.5 -94.5q0 -31 -8 -68.5t-31.5 -75.5t-67.5 -76t-116 -71z" />
<glyph unicode="&#x201c;" horiz-adv-x="536" d="M-8 1071q0 31 8 67t32.5 74.5t67.5 76.5t115 73l12 -19q-41 -39 -64.5 -67.5t-35.5 -53t-15 -45t-3 -42.5q0 -16 9 -24.5t21 -14.5q16 -10 33.5 -23.5t17.5 -48.5q0 -37 -23.5 -62.5t-60.5 -25.5q-59 0 -86.5 41t-27.5 94zM264 1071q0 31 8.5 68t32 74.5t66.5 75.5 t114 73l13 -19q-41 -39 -64.5 -67.5t-36 -53t-15.5 -45t-3 -42.5q0 -16 10 -23.5t23 -17.5q18 -12 33.5 -23.5t15.5 -46.5q0 -37 -24.5 -62.5t-59.5 -25.5q-59 0 -86 41t-27 94z" />
<glyph unicode="&#x201d;" horiz-adv-x="536" d="M-8 952q41 39 64.5 68t35.5 52.5t15.5 44t3.5 42.5q0 16 -9.5 24.5t-23.5 16.5q-16 10 -32.5 23.5t-16.5 48.5q0 39 24.5 63.5t59.5 24.5q59 0 86.5 -40t27.5 -93q0 -33 -8 -70t-32.5 -75t-68.5 -75.5t-114 -72.5zM264 952q39 39 62.5 68t36 52.5t15.5 44t3 42.5 q0 16 -9.5 24.5t-23.5 16.5q-16 10 -32.5 24.5t-16.5 47.5q0 39 24.5 63.5t59.5 24.5q59 0 87 -40t28 -93q0 -33 -8.5 -70t-33 -75t-67.5 -75.5t-113 -72.5z" />
<glyph unicode="&#x201e;" horiz-adv-x="552" d="M-8 -217q41 37 64.5 66.5t35.5 53t15.5 44t3.5 43.5q0 16 -11.5 25.5t-21.5 15.5q-16 10 -32.5 24.5t-16.5 46.5q0 39 24.5 63.5t59.5 24.5q59 0 86.5 -40.5t27.5 -94.5q0 -31 -8 -67.5t-32.5 -75.5t-68.5 -77t-114 -71zM295 -217q41 37 64.5 66.5t36 53t15.5 44t3 43.5 q0 16 -11.5 25.5t-21.5 15.5q-16 10 -32.5 24.5t-16.5 46.5q0 39 24.5 63.5t59.5 24.5q59 0 86.5 -40.5t27.5 -94.5q0 -31 -8 -67.5t-32.5 -75.5t-68.5 -77t-114 -71z" />
<glyph unicode="&#x2022;" horiz-adv-x="423" d="M115 303v184h209v-184h-209z" />
<glyph unicode="&#x2026;" horiz-adv-x="1253" d="M106 88q0 41 28 69.5t69 28.5t69.5 -28.5t28.5 -69.5t-28.5 -68.5t-69.5 -27.5t-69 27.5t-28 68.5zM518 88q0 41 26.5 69.5t67.5 28.5t70 -28.5t29 -69.5t-29 -68.5t-70 -27.5t-67.5 27.5t-26.5 68.5zM938 88q0 41 26.5 69.5t67.5 28.5t69.5 -28.5t28.5 -69.5 t-28.5 -68.5t-69.5 -27.5t-67.5 27.5t-26.5 68.5z" />
<glyph unicode="&#x202f;" horiz-adv-x="331" />
<glyph unicode="&#x2039;" horiz-adv-x="509" d="M98 451l289 364l12 -8l-157 -354l153 -359l-12 -10z" />
<glyph unicode="&#x203a;" horiz-adv-x="509" d="M102 805l17 8l284 -362l-280 -365l-17 10l158 357z" />
<glyph unicode="&#x205f;" horiz-adv-x="414" />
<glyph unicode="&#x20ac;" horiz-adv-x="1091" d="M25 520v78h125q-2 16 -3.5 35.5t-1.5 42.5v56.5t5 55.5h-125v80h135q23 119 68.5 212.5t106 158t133.5 98t150 33.5q33 0 69 -10t71 -21q29 -10 52.5 -16t43.5 -6v-221h-20q-14 59 -40 98t-57.5 61.5t-67.5 30.5t-71 8q-61 0 -114.5 -36.5t-95.5 -96t-70.5 -136.5 t-41.5 -157h578v-80h-584v-26q0 -41 3 -83t12 -81h567v-78h-553q23 -88 55.5 -171t77.5 -148.5t102.5 -105.5t131.5 -40q29 0 60.5 13.5t60 41t50 68.5t29.5 96h19v-225q-16 0 -32.5 -5t-37.5 -15l-12 -6q-29 -14 -71 -28.5t-97 -14.5q-82 0 -160 36.5t-142.5 106.5 t-111.5 170t-65 227h-131z" />
<glyph unicode="&#x2122;" horiz-adv-x="1507" d="M31 1186v166h579v-166h-20q-2 33 -27.5 64.5t-66.5 31.5h-121v-461q0 -10 3 -24.5t8 -27.5t12.5 -24.5t17.5 -11.5v-20h-195v20q8 0 16.5 10.5t12.5 24.5t7 28.5t3 24.5v461h-115q-41 0 -65.5 -31.5t-28.5 -64.5h-20zM692 715v20q8 0 16.5 10.5t12.5 24.5t7 28.5t3 22.5 v428q0 25 -5 52.5t-34 29.5v21h133l222 -434l215 434h147v-21q-16 0 -26.5 -29.5t-10.5 -52.5v-428q0 -8 3 -22.5t7 -28.5t11.5 -24.5t15.5 -10.5v-20h-192v20q8 0 16 10.5t13 23.5t8 27.5t3 24.5v348l-235 -469l-225 441v-320q0 -8 3 -22.5t8 -28.5t12 -24.5t18 -10.5v-20 h-146z" />
<glyph unicode="&#xe000;" horiz-adv-x="860" d="M0 0v860h860v-860h-860z" />
</font>
</defs>
</svg>
